Solitreo.ufo
<glyph name="dollar" format="2">
  <advance width="342"/>
  <unicode hex="0024"/>
  <outline>
    <contour>
      <point x="114.0" y="38.0" type="curve" smooth="yes"/>
      <point x="162.406541153" y="39.0966261664"/>
      <point x="191.165327997" y="93.9290342577"/>
      <point x="191.165327997" y="142.238775418" type="curve" smooth="yes"/>
      <point x="191.165327997" y="167.61217226"/>
      <point x="179.226642192" y="187.395541656"/>
      <point x="162.630007452" y="206.709711736" type="curve"/>
      <point x="141.399386542" y="144.923020715"/>
      <point x="118.960397961" y="85.2353966646"/>
      <point x="98.2638786376" y="38.29258351" type="curve"/>
      <point x="101.837037358" y="38.0595543828"/>
      <point x="105.529980889" y="37.9464437983"/>
      <point x="109.356483325" y="37.9464437983" type="curve" smooth="yes"/>
      <point x="110.882781397" y="37.9464437983"/>
      <point x="112.430328912" y="37.9644398805"/>
    </contour>
    <contour>
      <point x="115.224350989" y="257.277107339" type="curve"/>
      <point x="88.3391597172" y="287.937726204"/>
      <point x="64.6394593869" y="325.579447081"/>
      <point x="64.6394593869" y="383.694497291" type="curve" smooth="yes"/>
      <point x="64.6394593869" y="387.829723449"/>
      <point x="64.7594546638" y="392.068609264"/>
      <point x="65.0068359375" y="396.416015625" type="curve" smooth="yes"/>
      <point x="68.276770498" y="453.880891998"/>
      <point x="118.014662124" y="499.608870108"/>
      <point x="172.565429688" y="501.087890625" type="curve" smooth="yes"/>
      <point x="174.067917289" y="501.128627173"/>
      <point x="175.558102867" y="501.148741197"/>
      <point x="177.035753478" y="501.148741197" type="curve" smooth="yes"/>
      <point x="179.245319145" y="501.148741197"/>
      <point x="181.426856724" y="501.103766394"/>
      <point x="183.57958736" y="501.015516976" type="curve" smooth="yes"/>
      <point x="186.152809456" y="512.047246789"/>
      <point x="188.583784141" y="522.905813034"/>
      <point x="190.852539062" y="533.549804688" type="curve" smooth="yes"/>
      <point x="195.313356749" y="554.478126917"/>
      <point x="204.000742577" y="555.615406658"/>
      <point x="224.609373682" y="555.615406658" type="curve" smooth="yes"/>
      <point x="225.673733729" y="555.614999344"/>
      <point x="226.03462447" y="555.614257812"/>
      <point x="227.059570312" y="555.614257812" type="curve" smooth="yes"/>
      <point x="227.897516908" y="555.614257812"/>
      <point x="228.711984437" y="555.615067154"/>
      <point x="229.503504295" y="555.615067154" type="curve" smooth="yes"/>
      <point x="246.035702429" y="555.615067154"/>
      <point x="252.556929806" y="555.261990061"/>
      <point x="253.909179688" y="539.806640625" type="curve" smooth="yes"/>
      <point x="253.993002405" y="538.846198646"/>
      <point x="254.035737888" y="537.828737647"/>
      <point x="254.035737888" y="536.751235841" type="curve" smooth="yes"/>
      <point x="254.035737888" y="536.184261387"/>
      <point x="254.023905304" y="535.600662856"/>
      <point x="254.0" y="535.0" type="curve" smooth="yes"/>
      <point x="253.601592969" y="524.946897474"/>
      <point x="250.385315318" y="507.036415825"/>
      <point x="244.981816908" y="483.543752585" type="curve"/>
      <point x="264.175783432" y="471.740869679"/>
      <point x="276.196171685" y="455.406389337"/>
      <point x="279.0" y="439.0" type="curve" smooth="yes"/>
      <point x="279.699022889" y="434.909720431"/>
      <point x="280.023988523" y="431.103118802"/>
      <point x="280.023988523" y="427.63260959" type="curve" smooth="yes"/>
      <point x="280.023988523" y="413.931823531"/>
      <point x="274.959425237" y="405.469010767"/>
      <point x="267.850696962" y="405.469010767" type="curve" smooth="yes"/>
      <point x="261.80961179" y="405.469010767"/>
      <point x="254.292269395" y="411.580693795"/>
      <point x="247.15234375" y="425.783203125" type="curve" smooth="yes"/>
      <point x="244.404018784" y="431.250021991"/>
      <point x="240.398194019" y="437.590544904"/>
      <point x="235.122185729" y="443.66373954" type="curve"/>
      <point x="223.640882972" y="399.705062459"/>
      <point x="207.744848268" y="345.28002773"/>
      <point x="189.728214224" y="288.66518497" type="curve"/>
      <point x="226.021954126" y="248.22725413"/>
      <point x="264.12216305" y="204.021530821"/>
      <point x="264.12216305" y="144.144488279" type="curve" smooth="yes"/>
      <point x="264.12216305" y="141.32866127"/>
      <point x="264.037903601" y="138.478176794"/>
      <point x="263.865234375" y="135.591796875" type="curve" smooth="yes"/>
      <point x="259.260813457" y="58.6232000162"/>
      <point x="198.864647431" y="-10.5412537502"/>
      <point x="113.033813677" y="-10.5412537502" type="curve" smooth="yes"/>
      <point x="109.63917602" y="-10.5412537502"/>
      <point x="106.204752732" y="-10.4330647423"/>
      <point x="102.732421875" y="-10.212890625" type="curve" smooth="yes"/>
      <point x="93.2052690342" y="-9.6087913747"/>
      <point x="84.5313028437" y="-8.62185410037"/>
      <point x="76.5868596614" y="-7.22071477358" type="curve"/>
      <point x="60.6531759802" y="-37.594004821"/>
      <point x="46.6876054659" y="-56.3466269971"/>
      <point x="36.41796875" y="-57.2451171875" type="curve" smooth="yes"/>
      <point x="36.1584826936" y="-57.2675727116"/>
      <point x="35.9018298474" y="-57.2794036971"/>
      <point x="35.6468037647" y="-57.2794036971" type="curve" smooth="yes"/>
      <point x="35.6023792309" y="-57.2794036971"/>
      <point x="35.55800406" y="-57.2790446946"/>
      <point x="35.513671875" y="-57.2783203125" type="curve" smooth="yes"/>
      <point x="21.875" y="-57.05078125"/>
      <point x="18.337890625" y="-53.15625"/>
      <point x="17.7880859375" y="-46.869140625" type="curve" smooth="yes"/>
      <point x="17.7303451119" y="-46.208746717"/>
      <point x="17.705618164" y="-45.5219121642"/>
      <point x="17.705618164" y="-44.8100993659" type="curve" smooth="yes"/>
      <point x="17.705618164" y="-42.9335722708"/>
      <point x="17.8774677965" y="-40.8834490521"/>
      <point x="18.0693359375" y="-38.6865234375" type="curve" smooth="yes"/>
      <point x="18.4148931214" y="-34.7328656747"/>
      <point x="23.9088945083" y="-17.7357564558"/>
      <point x="32.8380613988" y="8.75246445153" type="curve"/>
      <point x="16.2511522871" y="19.4298867127"/>
      <point x="4.10106227648" y="34.8526180824"/>
      <point x="-7.404296875" y="55.982421875" type="curve" smooth="yes"/>
      <point x="-13.7179759121" y="67.5777741953"/>
      <point x="-16.5320746927" y="79.1178956172"/>
      <point x="-16.5320746927" y="88.0520915338" type="curve" smooth="yes"/>
      <point x="-16.5320746927" y="97.9742492858"/>
      <point x="-13.0611862962" y="104.682278003"/>
      <point x="-7.05837079784" y="104.682278003" type="curve" smooth="yes"/>
      <point x="-2.41117295901" y="104.682278003"/>
      <point x="3.75350681666" y="100.661896688"/>
      <point x="11.0" y="91.0" type="curve" smooth="yes"/>
      <point x="23.3901058921" y="74.4798588106"/>
      <point x="35.2684960374" y="62.3874051253"/>
      <point x="48.1850001065" y="53.9566230556" type="curve"/>
      <point x="66.4603776626" y="107.680838697"/>
      <point x="90.8875532787" y="179.768542996"/>
    </contour>
    <contour>
      <point x="175.355038108" y="467.050432904" type="curve"/>
      <point x="173.692648967" y="466.799745037"/>
      <point x="172.002701389" y="466.485604725"/>
      <point x="170.28515625" y="466.104492188" type="curve" smooth="yes"/>
      <point x="139.041583356" y="459.171738525"/>
      <point x="125.154832654" y="433.175212901"/>
      <point x="125.154832654" y="400.703083465" type="curve" smooth="yes"/>
      <point x="125.154832654" y="398.842066617"/>
      <point x="125.200444716" y="396.959780167"/>
      <point x="125.291015625" y="395.05859375" type="curve" smooth="yes"/>
      <point x="126.09672361" y="378.145866464"/>
      <point x="132.613675547" y="362.272137485"/>
      <point x="142.422767256" y="346.715826559" type="curve"/>
      <point x="154.305884956" y="387.256252245"/>
      <point x="165.556565957" y="427.934363951"/>
    </contour>
  </outline>
</glyph>
<glyph name="ampersand" format="2">
  <advance width="334"/>
  <unicode hex="0026"/>
  <outline>
    <contour>
      <point x="445.0" y="630.0" type="curve" smooth="yes"/>
      <point x="475.471522488" y="630.0"/>
      <point x="487.065681184" y="612.556257899"/>
      <point x="487.065681184" y="589.104728667" type="curve" smooth="yes"/>
      <point x="487.065681184" y="588.080951381"/>
      <point x="487.043585478" y="587.045724683"/>
      <point x="487.0" y="586.0" type="curve" smooth="yes"/>
      <point x="485.751813145" y="556.034644215"/>
      <point x="470.954347342" y="521.920612523"/>
      <point x="439.143416843" y="521.920612523" type="curve" smooth="yes"/>
      <point x="435.936381964" y="521.920612523"/>
      <point x="432.556426227" y="522.267339528"/>
      <point x="429.0" y="523.0" type="curve" smooth="yes"/>
      <point x="425.87270867" y="523.64420871"/>
      <point x="422.882547053" y="524.014157995"/>
      <point x="420.029468052" y="524.014157995" type="curve" smooth="yes"/>
      <point x="409.479336975" y="524.014157995"/>
      <point x="400.803641396" y="518.955558355"/>
      <point x="394.0" y="504.0" type="curve" smooth="yes"/>
      <point x="352.600585938" y="412.999023438"/>
      <point x="270.0" y="-2.0"/>
      <point x="122.0" y="-2.0" type="curve" smooth="yes"/>
      <point x="81.5504560061" y="-2.0"/>
      <point x="60.4638186313" y="31.6914575173"/>
      <point x="50.3054029495" y="57.1419389191" type="curve"/>
      <point x="31.0730017624" y="33.4635513867"/>
      <point x="8.65902196899" y="15.0"/>
      <point x="-7.0" y="15.0" type="curve" smooth="yes"/>
      <point x="-27.0" y="15.0"/>
      <point x="-27.0" y="20.0"/>
      <point x="-27.0" y="31.0" type="curve" smooth="yes"/>
      <point x="-27.0" y="44.0"/>
      <point x="-16.7939453125" y="48.22265625"/>
      <point x="8.0" y="135.0" type="curve" smooth="yes"/>
      <point x="14.0" y="156.0"/>
      <point x="33.0" y="158.0"/>
      <point x="53.0" y="158.0" type="curve" smooth="yes"/>
      <point x="54.0" y="158.0"/>
      <point x="55.0" y="158.0"/>
      <point x="56.0" y="158.0" type="curve" smooth="yes"/>
      <point x="76.0" y="158.0"/>
      <point x="89.0" y="158.0"/>
      <point x="89.0" y="137.0" type="curve" smooth="yes"/>
      <point x="89.0" y="131.761253361"/>
      <point x="87.9193741374" y="125.80208948"/>
      <point x="85.9670448032" y="119.401071681" type="curve" smooth="yes"/>
      <point x="85.9042516138" y="118.161745852"/>
      <point x="85.7736533199" y="115.070058979"/>
      <point x="85.7736532368" y="110.792984214" type="curve" smooth="yes"/>
      <point x="85.7736532368" y="89.9592575826"/>
      <point x="88.8723404255" y="41.0"/>
      <point x="118.0" y="41.0" type="curve" smooth="yes"/>
      <point x="207.0" y="41.0"/>
      <point x="318.801757812" y="630.0"/>
    </contour>
  </outline>
</glyph>
<glyph name="plus" format="2">
  <advance width="285"/>
  <unicode hex="002B"/>
  <outline>
    <contour>
      <point x="229.540039062" y="250.799804688" type="curve" smooth="yes"/>
      <point x="230.997816206" y="251.316872942"/>
      <point x="232.597173042" y="251.578021611"/>
      <point x="234.295297378" y="251.578021611" type="curve" smooth="yes"/>
      <point x="243.42457084" y="251.578021611"/>
      <point x="255.408459184" y="244.030206076"/>
      <point x="263.594726562" y="228.122070312" type="curve" smooth="yes"/>
      <point x="267.02056829" y="221.464551401"/>
      <point x="268.436748436" y="215.70401151"/>
      <point x="268.436748436" y="210.837166166" type="curve" smooth="yes"/>
      <point x="268.436748436" y="200.5765472"/>
      <point x="262.14211375" y="194.288219972"/>
      <point x="255.114257812" y="191.94140625" type="curve" smooth="yes"/>
      <point x="234.376278589" y="185.015114673"/>
      <point x="192.167772478" y="180.083567156"/>
      <point x="149.371365817" y="178.579323046" type="curve"/>
      <point x="142.730289936" y="167.003493463"/>
      <point x="135.865144968" y="155.659040871"/>
      <point x="129.0" y="145.0" type="curve" smooth="yes"/>
      <point x="105.0" y="107.0"/>
      <point x="81.0" y="78.0"/>
      <point x="67.0" y="78.0" type="curve" smooth="yes"/>
      <point x="48.0" y="78.0"/>
      <point x="48.0" y="84.0"/>
      <point x="48.0" y="95.0" type="curve" smooth="yes"/>
      <point x="48.0" y="101.856450409"/>
      <point x="62.4648960642" y="135.973666477"/>
      <point x="79.6576654076" y="179.599401242" type="curve"/>
      <point x="55.7042952761" y="181.461861944"/>
      <point x="36.5524678007" y="185.129483746"/>
      <point x="28.0" y="191.0" type="curve" smooth="yes"/>
      <point x="17.8060907544" y="197.997437869"/>
      <point x="12.4307442769" y="206.717841778"/>
      <point x="12.4307442769" y="214.150537777" type="curve" smooth="yes"/>
      <point x="12.4307442769" y="219.649949757"/>
      <point x="15.3734459278" y="224.444413654"/>
      <point x="21.484375" y="227.314453125" type="curve" smooth="yes"/>
      <point x="25.9617100149" y="229.417205743"/>
      <point x="32.6463913077" y="230.060271185"/>
      <point x="41.3558792486" y="230.060271185" type="curve" smooth="yes"/>
      <point x="55.0728071508" y="230.060271185"/>
      <point x="73.8121434635" y="228.465186889"/>
      <point x="96.8607891217" y="228.465186889" type="curve" smooth="yes"/>
      <point x="97.3484738306" y="228.465186889"/>
      <point x="97.8380878188" y="228.465901009"/>
      <point x="98.3296243314" y="228.467359469" type="curve"/>
      <point x="107.931335415" y="254.633875034"/>
      <point x="117.117119998" y="281.762773327"/>
      <point x="124.0" y="307.0" type="curve" smooth="yes"/>
      <point x="130.0" y="328.0"/>
      <point x="149.0" y="329.0"/>
      <point x="169.0" y="329.0" type="curve" smooth="yes"/>
      <point x="170.0" y="329.0"/>
      <point x="170.0" y="329.0"/>
      <point x="171.0" y="329.0" type="curve" smooth="yes"/>
      <point x="191.0" y="329.0"/>
      <point x="205.0" y="329.0"/>
      <point x="205.0" y="308.0" type="curve" smooth="yes"/>
      <point x="205.0" y="295.628740191"/>
      <point x="194.903078764" y="268.377806982"/>
      <point x="179.913887788" y="236.793467876" type="curve"/>
      <point x="195.576608196" y="240.096568963"/>
      <point x="212.149066698" y="244.629312253"/>
    </contour>
  </outline>
</glyph>
<glyph name="hyphen" format="2">
  <advance width="285"/>
  <unicode hex="002D"/>
  <outline>
    <contour>
      <point x="229.540039062" y="250.799804688" type="curve" smooth="yes"/>
      <point x="230.997816206" y="251.316872942"/>
      <point x="232.597173042" y="251.578021611"/>
      <point x="234.295297378" y="251.578021611" type="curve" smooth="yes"/>
      <point x="243.42457084" y="251.578021611"/>
      <point x="255.408459184" y="244.030206076"/>
      <point x="263.594726562" y="228.122070312" type="curve" smooth="yes"/>
      <point x="267.02056829" y="221.464551401"/>
      <point x="268.436748436" y="215.70401151"/>
      <point x="268.436748436" y="210.837166166" type="curve" smooth="yes"/>
      <point x="268.436748436" y="200.5765472"/>
      <point x="262.14211375" y="194.288219972"/>
      <point x="255.114257812" y="191.94140625" type="curve" smooth="yes"/>
      <point x="230.016850836" y="183.559106477"/>
      <point x="173.47328975" y="178.098347915"/>
      <point x="122.498115868" y="178.098347915" type="curve" smooth="yes"/>
      <point x="79.9319248733" y="178.098347915"/>
      <point x="41.248503059" y="181.906068943"/>
      <point x="28.0" y="191.0" type="curve" smooth="yes"/>
      <point x="17.8060907544" y="197.997437869"/>
      <point x="12.4307442769" y="206.717841778"/>
      <point x="12.4307442769" y="214.150537777" type="curve" smooth="yes"/>
      <point x="12.4307442769" y="219.649949757"/>
      <point x="15.3734459278" y="224.444413654"/>
      <point x="21.484375" y="227.314453125" type="curve" smooth="yes"/>
      <point x="25.9617100149" y="229.417205743"/>
      <point x="32.6463913077" y="230.060271185"/>
      <point x="41.3558792486" y="230.060271185" type="curve" smooth="yes"/>
      <point x="55.0728071508" y="230.060271185"/>
      <point x="73.8121434635" y="228.465186889"/>
      <point x="96.8607891217" y="228.465186889" type="curve" smooth="yes"/>
      <point x="131.942154656" y="228.465186889"/>
      <point x="177.006721493" y="232.160453657"/>
    </contour>
  </outline>
</glyph>
<glyph name="slash" format="2">
  <advance width="219"/>
  <unicode hex="002F"/>
  <outline>
    <contour>
      <point x="290.0" y="627.0" type="curve" smooth="yes"/>
      <point x="292.481303044" y="627.923219199"/>
      <point x="294.92071683" y="628.348285078"/>
      <point x="297.203155607" y="628.348285078" type="curve" smooth="yes"/>
      <point x="304.720565451" y="628.348285078"/>
      <point x="310.53515546" y="623.737292454"/>
      <point x="310.53515546" y="617.12656666" type="curve" smooth="yes"/>
      <point x="310.53515546" y="615.228612526"/>
      <point x="310.055872226" y="613.165825003"/>
      <point x="309.0" y="611.0" type="curve" smooth="yes"/>
      <point x="280.237121392" y="552.001041489"/>
      <point x="131.884765625" y="166.420898438"/>
      <point x="62.74609375" y="-67.0048828125" type="curve" smooth="yes"/>
      <point x="58.1569916467" y="-82.498595877"/>
      <point x="45.6761491537" y="-85.8700100707"/>
      <point x="31.4241383871" y="-85.8700100707" type="curve" smooth="yes"/>
      <point x="26.4130401111" y="-85.8700100707"/>
      <point x="21.1829775011" y="-85.4532120313"/>
      <point x="16.0" y="-85.0" type="curve" smooth="yes"/>
      <point x="15.00390625" y="-84.912109375"/>
      <point x="15.00390625" y="-84.912109375"/>
      <point x="14.0078125" y="-84.8251953125" type="curve" smooth="yes"/>
      <point x="-4.73867268483" y="-83.1850386585"/>
      <point x="-18.1944451813" y="-82.008251649"/>
      <point x="-18.1944451813" y="-64.4479766997" type="curve" smooth="yes"/>
      <point x="-18.1944451813" y="10.8875882221"/>
      <point x="250.030893727" y="612.12777441"/>
    </contour>
  </outline>
</glyph>
<glyph name="zero" format="2">
  <advance width="408"/>
  <unicode hex="0030"/>
  <outline>
    <contour>
      <point x="211.388671875" y="489.064453125" type="curve" smooth="yes"/>
      <point x="213.26953125" y="488.948242188"/>
      <point x="215.1328125" y="488.810546875"/>
      <point x="216.9765625" y="488.649414062" type="curve" smooth="yes"/>
      <point x="321.189329715" y="479.531882143"/>
      <point x="359.666579784" y="398.290023712"/>
      <point x="359.666579784" y="304.470992996" type="curve" smooth="yes"/>
      <point x="359.666579784" y="293.812772778"/>
      <point x="359.169997158" y="282.992233132"/>
      <point x="358.216796875" y="272.096679688" type="curve" smooth="yes"/>
      <point x="347.010776383" y="144.017405922"/>
      <point x="268.14366879" y="0.0570791050135"/>
      <point x="146.638555951" y="0.0570791050135" type="curve" smooth="yes"/>
      <point x="135.361205649" y="0.0570791050135"/>
      <point x="123.716554512" y="1.29721094941"/>
      <point x="111.724609375" y="3.9052734375" type="curve" smooth="yes"/>
      <point x="14.4749063222" y="25.0515828127"/>
      <point x="-11.2302259195" y="97.9441843145"/>
      <point x="-11.2302259195" y="181.345150876" type="curve" smooth="yes"/>
      <point x="-11.2302259195" y="195.735265183"/>
      <point x="-10.4649709434" y="210.43821891"/>
      <point x="-9.169921875" y="225.2421875" type="curve" smooth="yes"/>
      <point x="2.07540231447" y="353.765192119"/>
      <point x="71.1357475657" y="489.42247525"/>
      <point x="199.839548961" y="489.42247525" type="curve" smooth="yes"/>
      <point x="203.637308936" y="489.42247525"/>
      <point x="207.487000915" y="489.304357438"/>
    </contour>
    <contour>
      <point x="128.517578125" y="46.4404296875" type="curve" smooth="yes"/>
      <point x="131.796420401" y="45.9964158479"/>
      <point x="135.028750116" y="45.7795001011"/>
      <point x="138.213831661" y="45.7795001011" type="curve" smooth="yes"/>
      <point x="217.095339537" y="45.7795001011"/>
      <point x="266.997120723" y="178.8250573"/>
      <point x="276.745117188" y="290.244140625" type="curve" smooth="yes"/>
      <point x="278.090548166" y="305.622831028"/>
      <point x="278.857624738" y="320.41279155"/>
      <point x="278.857624738" y="334.376119241" type="curve" smooth="yes"/>
      <point x="278.857624738" y="395.452987662"/>
      <point x="264.181399073" y="440.714159932"/>
      <point x="219.03515625" y="450.25" type="curve" smooth="yes"/>
      <point x="214.389284541" y="451.231306236"/>
      <point x="209.823145281" y="451.705262412"/>
      <point x="205.3403983" y="451.705262412" type="curve" smooth="yes"/>
      <point x="128.738611182" y="451.705262412"/>
      <point x="76.4877334813" y="313.307988066"/>
      <point x="66.849609375" y="203.142578125" type="curve" smooth="yes"/>
      <point x="65.5173330568" y="187.914425928"/>
      <point x="64.6903798814" y="172.955555904"/>
      <point x="64.6903798814" y="158.68263031" type="curve" smooth="yes"/>
      <point x="64.6903798814" y="100.180469099"/>
      <point x="78.5834662682" y="53.2024007938"/>
    </contour>
  </outline>
</glyph>
<glyph name="two" format="2">
  <advance width="412"/>
  <unicode hex="0032"/>
  <outline>
    <contour>
      <point x="252.0" y="492.0" type="curve" smooth="yes"/>
      <point x="259.192147439" y="492.799127077"/>
      <point x="266.098966757" y="493.185238768"/>
      <point x="272.715903467" y="493.185238768" type="curve" smooth="yes"/>
      <point x="342.460825526" y="493.185238768"/>
      <point x="380.0" y="450.288509816"/>
      <point x="380.0" y="396.0" type="curve" smooth="yes"/>
      <point x="380.0" y="276.0"/>
      <point x="227.877929688" y="145.0"/>
      <point x="171.0" y="85.0" type="curve"/>
      <point x="215.866235859" y="55.5046042039"/>
      <point x="253.311490016" y="47.2596276379"/>
      <point x="283.407481673" y="47.2596276379" type="curve" smooth="yes"/>
      <point x="321.567004936" y="47.2596276379"/>
      <point x="347.91156632" y="60.5145744875"/>
      <point x="362.587356034" y="60.5145744875" type="curve" smooth="yes"/>
      <point x="364.198871956" y="60.5145744875"/>
      <point x="365.669688758" y="60.3547496646"/>
      <point x="367.0" y="60.0" type="curve" smooth="yes"/>
      <point x="373.285681027" y="58.3238183928"/>
      <point x="375.864558334" y="54.0363074711"/>
      <point x="375.864558334" y="48.8750004075" type="curve" smooth="yes"/>
      <point x="375.864558334" y="41.7194868084"/>
      <point x="370.907855206" y="32.8845028218"/>
      <point x="364.0" y="27.0" type="curve" smooth="yes"/>
      <point x="337.471891253" y="4.40185251114"/>
      <point x="310.859514591" y="-3.37496974996"/>
      <point x="284.091489314" y="-3.37496974996" type="curve" smooth="yes"/>
      <point x="232.154093428" y="-3.37496974996"/>
      <point x="179.630730842" y="25.9022509734"/>
      <point x="126.0" y="33.0" type="curve"/>
      <point x="100.106427197" y="9.39115420897"/>
      <point x="82.3328194242" y="0.600043276724"/>
      <point x="64.2866489345" y="0.600043276724" type="curve" smooth="yes"/>
      <point x="58.636985662" y="0.600043276724"/>
      <point x="52.960608233" y="1.46166923874"/>
      <point x="47.0" y="3.0" type="curve" smooth="yes"/>
      <point x="21.9671747542" y="9.46054288616"/>
      <point x="12.461164071" y="35.8247196122"/>
      <point x="12.461164071" y="58.0961909315" type="curve" smooth="yes"/>
      <point x="12.461164071" y="63.4050083487"/>
      <point x="13.0012912843" y="68.481280102"/>
      <point x="14.0" y="73.0" type="curve" smooth="yes"/>
      <point x="19.99566615" y="100.129524604"/>
      <point x="43.6464501542" y="118.053327236"/>
      <point x="77.6203435889" y="118.053327236" type="curve" smooth="yes"/>
      <point x="88.7287057957" y="118.053327236"/>
      <point x="100.940689001" y="116.13713279"/>
      <point x="114.0" y="112.0" type="curve"/>
      <point x="159.599609375" y="153.0"/>
      <point x="276.488416692" y="263.467798282"/>
      <point x="293.0" y="374.0" type="curve" smooth="yes"/>
      <point x="293.605325212" y="378.052181258"/>
      <point x="293.895600172" y="381.880235682"/>
      <point x="293.895600172" y="385.488284519" type="curve" smooth="yes"/>
      <point x="293.895600172" y="417.781019796"/>
      <point x="270.6428447" y="432.449995409"/>
      <point x="241.900322623" y="432.449995409" type="curve" smooth="yes"/>
      <point x="238.983883861" y="432.449995409"/>
      <point x="236.010924098" y="432.298968003"/>
      <point x="233.0" y="432.0" type="curve" smooth="yes"/>
      <point x="202.0" y="428.921872559"/>
      <point x="172.53515289" y="415.905273438"/>
      <point x="146.45703125" y="369.224609375" type="curve" smooth="yes"/>
      <point x="140.869403109" y="359.222577949"/>
      <point x="138.527650704" y="350.319513395"/>
      <point x="138.527650704" y="342.748462551" type="curve" smooth="yes"/>
      <point x="138.527650704" y="324.909012555"/>
      <point x="151.52909413" y="314.464922058"/>
      <point x="165.704191923" y="314.464922058" type="curve" smooth="yes"/>
      <point x="171.546093462" y="314.464922058"/>
      <point x="177.587335966" y="316.238813198"/>
      <point x="183.0" y="320.0" type="curve" smooth="yes"/>
      <point x="194.892257666" y="328.264054678"/>
      <point x="204.912413137" y="331.582141829"/>
      <point x="212.678744426" y="331.582141829" type="curve" smooth="yes"/>
      <point x="224.528458768" y="331.582141829"/>
      <point x="231.131258796" y="323.85761784"/>
      <point x="231.131258796" y="314.190840222" type="curve" smooth="yes"/>
      <point x="231.131258796" y="306.099205814"/>
      <point x="226.504922559" y="296.646706574"/>
      <point x="216.45703125" y="289.224609375" type="curve" smooth="yes"/>
      <point x="198.560714" y="276.005098729"/>
      <point x="172.267476033" y="268.315425802"/>
      <point x="147.286697044" y="268.315425802" type="curve" smooth="yes"/>
      <point x="110.45198926" y="268.315425802"/>
      <point x="76.4708495801" y="285.034428641"/>
      <point x="76.4708495801" y="325.396710343" type="curve" smooth="yes"/>
      <point x="76.4708495801" y="330.251705146"/>
      <point x="76.9625086563" y="335.448784787"/>
      <point x="78.0" y="341.0" type="curve" smooth="yes"/>
      <point x="92.3908730604" y="418.0"/>
      <point x="172.0" y="483.111115742"/>
    </contour>
  </outline>
</glyph>
<glyph name="five" format="2">
  <advance width="405"/>
  <unicode hex="0035"/>
  <outline>
    <contour>
      <point x="52.0" y="79.0" type="curve" smooth="yes"/>
      <point x="66.3557518778" y="64.5700314872"/>
      <point x="65.1218169086" y="31.8436449907"/>
      <point x="98.4272506502" y="31.8436449907" type="curve" smooth="yes"/>
      <point x="99.7429254495" y="31.8436449907"/>
      <point x="101.112499325" y="31.8947148874"/>
      <point x="102.5390625" y="32.0" type="curve" smooth="yes"/>
      <point x="123.943359375" y="33.580078125"/>
      <point x="135.0" y="34.26171875"/>
      <point x="159.0" y="44.1953125" type="curve" smooth="yes"/>
      <point x="221.393554688" y="70.01953125"/>
      <point x="251.915039062" y="130.295898438"/>
      <point x="256.0625" y="184.375976562" type="curve" smooth="yes"/>
      <point x="256.281681911" y="187.233833948"/>
      <point x="256.38826852" y="190.030544163"/>
      <point x="256.38826852" y="192.765464995" type="curve" smooth="yes"/>
      <point x="256.38826852" y="247.582228631"/>
      <point x="213.568934405" y="277.576171875"/>
      <point x="176.3125" y="277.576171875" type="curve" smooth="yes"/>
      <point x="149.069335938" y="277.576171875"/>
      <point x="120.190429688" y="261.609375"/>
      <point x="101.5390625" y="247.0" type="curve" smooth="yes"/>
      <point x="98.5025094024" y="244.621467355"/>
      <point x="93.9340197843" y="241.989535623"/>
      <point x="89.9670199765" y="241.989535623" type="curve" smooth="yes"/>
      <point x="89.82354708" y="241.989535623"/>
      <point x="89.6808044965" y="241.991918496"/>
      <point x="89.5390625" y="242.0" type="curve" smooth="yes"/>
      <point x="73.5231943042" y="242.913154178"/>
      <point x="70.4645819571" y="247.995561117"/>
      <point x="70.4645819571" y="256.485786703" type="curve" smooth="yes"/>
      <point x="70.4645819571" y="257.293252343"/>
      <point x="70.4922471739" y="258.131541778"/>
      <point x="70.5390625" y="259.0" type="curve" smooth="yes"/>
      <point x="71.2388277693" y="271.981152821"/>
      <point x="121.5390625" y="382.0"/>
      <point x="145.5390625" y="470.0" type="curve" smooth="yes"/>
      <point x="151.5390625" y="491.0"/>
      <point x="170.5390625" y="492.0"/>
      <point x="190.5390625" y="492.0" type="curve" smooth="yes"/>
      <point x="191.5390625" y="492.0"/>
      <point x="191.5390625" y="492.0"/>
      <point x="192.5390625" y="492.0" type="curve" smooth="yes"/>
      <point x="253.793851269" y="492.0"/>
      <point x="288.125282842" y="472.685417663"/>
      <point x="325.009508062" y="472.685417663" type="curve" smooth="yes"/>
      <point x="336.898975526" y="472.685417663"/>
      <point x="349.053695306" y="474.692331819"/>
      <point x="362.4609375" y="480.0" type="curve" smooth="yes"/>
      <point x="373.467740345" y="484.357353659"/>
      <point x="382.26111433" y="486.170087095"/>
      <point x="388.949875714" y="486.170087095" type="curve" smooth="yes"/>
      <point x="400.055482215" y="486.170087095"/>
      <point x="405.359254398" y="481.172882833"/>
      <point x="405.359254398" y="474.528388173" type="curve" smooth="yes"/>
      <point x="405.359254398" y="464.086930747"/>
      <point x="392.261911677" y="449.577589908"/>
      <point x="368.0" y="444.0" type="curve" smooth="yes"/>
      <point x="343.241971369" y="438.308613006"/>
      <point x="323.37765721" y="436.368494499"/>
      <point x="306.549201966" y="436.368494499" type="curve" smooth="yes"/>
      <point x="270.495647206" y="436.368494499"/>
      <point x="248.376524209" y="445.273535775"/>
      <point x="221.922467548" y="445.273535775" type="curve" smooth="yes"/>
      <point x="219.508047133" y="445.273535775"/>
      <point x="217.057517035" y="445.199357425"/>
      <point x="214.556987795" y="445.037460442" type="curve"/>
      <point x="193.769119834" y="400.169702493"/>
      <point x="161.61515191" y="330.170171628"/>
      <point x="150.241377755" y="311.015975248" type="curve"/>
      <point x="165.549255943" y="316.781693063"/>
      <point x="182.108770037" y="320.481325011"/>
      <point x="198.5390625" y="320.501953125" type="curve" smooth="yes"/>
      <point x="198.800160048" y="320.50211586" type="line" smooth="yes"/>
      <point x="285.784396756" y="320.50211586"/>
      <point x="333.319810459" y="266.27886734"/>
      <point x="333.319810459" y="190.21304272" type="curve" smooth="yes"/>
      <point x="333.319810459" y="189.668534413"/>
      <point x="333.317374628" y="189.122906839"/>
      <point x="333.3125" y="188.576171875" type="curve" smooth="yes"/>
      <point x="332.750976562" y="125.624023438"/>
      <point x="298.461914062" y="44.62109375"/>
      <point x="191.0" y="8.7578125" type="curve" smooth="yes"/>
      <point x="168.36328125" y="1.203125"/>
      <point x="142.067382812" y="-3.8515625"/>
      <point x="112.0" y="-6.0" type="curve" smooth="yes"/>
      <point x="104.217858189" y="-6.55604821861"/>
      <point x="96.8589453594" y="-6.83327327602"/>
      <point x="89.8940375207" y="-6.83327327602" type="curve" smooth="yes"/>
      <point x="43.1597863798" y="-6.83327327602"/>
      <point x="14.1650424294" y="5.64838562386"/>
      <point x="-5.9189453125" y="30.12890625" type="curve" smooth="yes"/>
      <point x="-11.0603663607" y="36.3958222241"/>
      <point x="-14.1154802879" y="45.3213258623"/>
      <point x="-14.1154802879" y="54.2032455693" type="curve" smooth="yes"/>
      <point x="-14.1154802879" y="63.0773537937"/>
      <point x="-11.0657378289" y="71.9079547157"/>
      <point x="-4.0" y="78.0" type="curve" smooth="yes"/>
      <point x="4.2595428298" y="85.1212528936"/>
      <point x="15.2705355297" y="88.5819599666"/>
      <point x="25.7834262899" y="88.5819599666" type="curve" smooth="yes"/>
      <point x="35.9786798271" y="88.5819599666"/>
      <point x="45.7054760866" y="85.3272177437"/>
    </contour>
  </outline>
</glyph>
<glyph name="six" format="2">
  <advance width="385"/>
  <unicode hex="0036"/>
  <outline>
    <contour>
      <point x="127.618164062" y="3.580078125" type="curve" smooth="yes"/>
      <point x="32.0010490544" y="26.5684212366"/>
      <point x="0.15755759598" y="108.717334167"/>
      <point x="0.15755759598" y="189.137599287" type="curve" smooth="yes"/>
      <point x="0.15755759598" y="198.426342623"/>
      <point x="0.582376274914" y="207.692024358"/>
      <point x="1.3828125" y="216.840820312" type="curve" smooth="yes"/>
      <point x="2.2734375" y="227.028320312"/>
      <point x="3.630859375" y="237.071289062"/>
      <point x="5.3857421875" y="246.83984375" type="curve" smooth="yes"/>
      <point x="45.4140786084" y="469.642195647"/>
      <point x="204.913295095" y="576.795823966"/>
      <point x="305.446352864" y="576.795823966" type="curve" smooth="yes"/>
      <point x="309.377963014" y="576.795823966"/>
      <point x="313.219389901" y="576.631942442"/>
      <point x="316.959960938" y="576.3046875" type="curve" smooth="yes"/>
      <point x="320.37890625" y="576.004882812"/>
      <point x="323.713867188" y="575.569335938"/>
      <point x="326.95703125" y="574.998046875" type="curve" smooth="yes"/>
      <point x="333.762114045" y="573.797524122"/>
      <point x="337.809249872" y="569.850048977"/>
      <point x="337.809249872" y="563.254789814" type="curve" smooth="yes"/>
      <point x="337.809249872" y="562.763017991"/>
      <point x="337.786748379" y="562.256524869"/>
      <point x="337.741210938" y="561.735351562" type="curve" smooth="yes"/>
      <point x="337.689453125" y="561.154296875"/>
      <point x="337.610351562" y="560.5546875"/>
      <point x="337.501953125" y="559.9375" type="curve" smooth="yes"/>
      <point x="335.765625" y="550.08984375"/>
      <point x="323.32131554" y="546.591572768"/>
      <point x="318.4453125" y="544.004882812" type="curve" smooth="yes"/>
      <point x="260.0" y="513.0"/>
      <point x="89.7802734375" y="475.627929688"/>
      <point x="73.7333984375" y="189.310546875" type="curve" smooth="yes"/>
      <point x="73.4276152545" y="183.854976202"/>
      <point x="73.2733518178" y="178.471994728"/>
      <point x="73.2733518178" y="173.174736466" type="curve" smooth="yes"/>
      <point x="73.2733518178" y="107.367511678"/>
      <point x="97.0805266331" y="54.7897827372"/>
      <point x="149.955078125" y="40.6220703125" type="curve" smooth="yes"/>
      <point x="155.827148438" y="39.048828125"/>
      <point x="161.508789062" y="38.0458984375"/>
      <point x="167.0" y="37.5654296875" type="curve" smooth="yes"/>
      <point x="169.574618573" y="37.3401602811"/>
      <point x="172.107171971" y="37.2299253751"/>
      <point x="174.597485165" y="37.2299253751" type="curve" smooth="yes"/>
      <point x="231.537636041" y="37.2299253751"/>
      <point x="266.394927983" y="94.8598994188"/>
      <point x="277.077148438" y="152.748046875" type="curve" smooth="yes"/>
      <point x="278.612304688" y="161.072265625"/>
      <point x="279.858398438" y="169.844726562"/>
      <point x="280.635742188" y="178.731445312" type="curve" smooth="yes"/>
      <point x="281.203309501" y="185.218895294"/>
      <point x="281.521557989" y="191.767208235"/>
      <point x="281.521557989" y="198.246120759" type="curve" smooth="yes"/>
      <point x="281.521557989" y="238.53175706"/>
      <point x="269.217097627" y="276.134160874"/>
      <point x="228.037109375" y="279.737304688" type="curve" smooth="yes"/>
      <point x="225.906387331" y="279.923719858"/>
      <point x="223.698330834" y="280.019094282"/>
      <point x="221.410645293" y="280.019094282" type="curve" smooth="yes"/>
      <point x="210.347745386" y="280.019094282"/>
      <point x="197.422686271" y="277.788722613"/>
      <point x="182.375976562" y="272.837890625" type="curve" smooth="yes"/>
      <point x="175.266774894" y="270.498286171"/>
      <point x="169.183330818" y="269.479227903"/>
      <point x="164.051236897" y="269.479227903" type="curve" smooth="yes"/>
      <point x="162.973204775" y="269.479227903"/>
      <point x="161.937149963" y="269.524192761"/>
      <point x="160.942382812" y="269.611328125" type="curve" smooth="yes"/>
      <point x="147.455382771" y="270.791429256"/>
      <point x="141.564907082" y="279.718950993"/>
      <point x="141.564907082" y="289.415680397" type="curve" smooth="yes"/>
      <point x="141.564907082" y="290.126442605"/>
      <point x="141.596555242" y="290.841337587"/>
      <point x="141.659179688" y="291.557617188" type="curve" smooth="yes"/>
      <point x="142.555664062" y="301.796875"/>
      <point x="149.78125" y="312.317382812"/>
      <point x="161.376953125" y="315.09375" type="curve" smooth="yes"/>
      <point x="182.425049984" y="320.132740601"/>
      <point x="201.360794442" y="322.444252634"/>
      <point x="218.331152594" y="322.444252634" type="curve" smooth="yes"/>
      <point x="223.540974363" y="322.444252634"/>
      <point x="228.565565997" y="322.226401475"/>
      <point x="233.409179688" y="321.802734375" type="curve" smooth="yes"/>
      <point x="313.910802016" y="314.759387813"/>
      <point x="344.409643808" y="250.852665207"/>
      <point x="344.409643808" y="185.298568045" type="curve" smooth="yes"/>
      <point x="344.409643808" y="178.957893445"/>
      <point x="344.124309103" y="172.601806682"/>
      <point x="343.571289062" y="166.280273438" type="curve" smooth="yes"/>
      <point x="343.41796875" y="164.52734375"/>
      <point x="343.244140625" y="162.776367188"/>
      <point x="343.049804688" y="161.030273438" type="curve" smooth="yes"/>
      <point x="333.108269158" y="71.604578776"/>
      <point x="263.07571265" y="-1.68030962881"/>
      <point x="170.944567152" y="-1.68030962881" type="curve" smooth="yes"/>
      <point x="165.859612918" y="-1.68030962881"/>
      <point x="160.707341537" y="-1.45706779255"/>
      <point x="155.494140625" y="-1.0009765625" type="curve" smooth="yes"/>
      <point x="146.376953125" y="-0.203125"/>
      <point x="137.07421875" y="1.306640625"/>
    </contour>
  </outline>
</glyph>
<glyph name="seven" format="2">
  <advance width="285"/>
  <unicode hex="0037"/>
  <outline>
    <contour>
      <point x="123.0" y="493.0" type="curve" smooth="yes"/>
      <point x="151.230106699" y="462.472489058"/>
      <point x="197.040880622" y="451.17846068"/>
      <point x="235.82882412" y="451.17846068" type="curve" smooth="yes"/>
      <point x="262.610231806" y="451.17846068"/>
      <point x="286.043639296" y="456.562672876"/>
      <point x="298.030505495" y="464.717729163" type="curve" smooth="yes"/>
      <point x="304.061227742" y="470.586778374"/>
      <point x="309.11094147" y="474.444376575"/>
      <point x="313.0" y="476.0" type="curve" smooth="yes"/>
      <point x="314.890247698" y="476.756099079"/>
      <point x="317.169364271" y="477.121225134"/>
      <point x="319.576308629" y="477.121225134" type="curve" smooth="yes"/>
      <point x="328.158154283" y="477.121225134"/>
      <point x="338.365004402" y="472.47957799"/>
      <point x="338.365004402" y="464.367814104" type="curve" smooth="yes"/>
      <point x="338.365004402" y="462.718685617"/>
      <point x="337.943142679" y="460.92613292"/>
      <point x="337.0" y="459.0" type="curve" smooth="yes"/>
      <point x="287.056602626" y="357.003108143"/>
      <point x="242.736268881" y="276.69817506"/>
      <point x="201.788675386" y="201.224103842" type="curve"/>
      <point x="225.121542052" y="194.588133224"/>
      <point x="241.302142589" y="193.987096244"/>
      <point x="246.643554688" y="188.228515625" type="curve" smooth="yes"/>
      <point x="249.309671528" y="185.354326288"/>
      <point x="250.589650266" y="182.005587325"/>
      <point x="250.589650266" y="178.571421134" type="curve" smooth="yes"/>
      <point x="250.589650266" y="169.739915801"/>
      <point x="242.12459866" y="160.343443358"/>
      <point x="227.0" y="157.0" type="curve" smooth="yes"/>
      <point x="223.386529438" y="156.201244702"/>
      <point x="218.973275768" y="155.820527319"/>
      <point x="213.936334938" y="155.820527319" type="curve" smooth="yes"/>
      <point x="204.29782776" y="155.820527319"/>
      <point x="192.375549048" y="157.214610085"/>
      <point x="179.403393615" y="159.741272661" type="curve"/>
      <point x="132.282176214" y="71.7658621938"/>
      <point x="89.3100953486" y="-13.8059282103"/>
      <point x="46.74609375" y="-125.004882812" type="curve" smooth="yes"/>
      <point x="40.8597919716" y="-140.382892224"/>
      <point x="28.6035022921" y="-143.791918618"/>
      <point x="14.3900696198" y="-143.791918618" type="curve" smooth="yes"/>
      <point x="9.75074118611" y="-143.791918618"/>
      <point x="4.90289893394" y="-143.428721287"/>
      <point x="0.0" y="-143.0" type="curve" smooth="yes"/>
      <point x="-0.99609375" y="-142.912109375"/>
      <point x="-0.99609375" y="-142.912109375"/>
      <point x="-1.9921875" y="-142.825195312" type="curve" smooth="yes"/>
      <point x="-19.3494322603" y="-141.306585279"/>
      <point x="-35.1130288617" y="-139.646094493"/>
      <point x="-35.1130288617" y="-125.880564081" type="curve" smooth="yes"/>
      <point x="-35.1130288617" y="-123.845080809"/>
      <point x="-34.7683580655" y="-121.544921032"/>
      <point x="-34.033203125" y="-118.94140625" type="curve" smooth="yes"/>
      <point x="-14.7441624209" y="-50.6302247064"/>
      <point x="44.4250351893" y="68.0725405479"/>
      <point x="109.132464295" y="181.62928509" type="curve"/>
      <point x="92.7015485547" y="188.828393624"/>
      <point x="78.021115038" y="197.12910167"/>
      <point x="67.630859375" y="205.993164062" type="curve" smooth="yes"/>
      <point x="63.6427264304" y="209.395096288"/>
      <point x="60.7338365521" y="214.488517179"/>
      <point x="60.7338365521" y="220.545840314" type="curve" smooth="yes"/>
      <point x="60.7338365521" y="227.112364955"/>
      <point x="64.1523473237" y="234.811662008"/>
      <point x="73.3203125" y="242.716796875" type="curve" smooth="yes"/>
      <point x="83.2296333341" y="251.260996761"/>
      <point x="93.346888981" y="254.898306375"/>
      <point x="101.378820674" y="254.898306375" type="curve" smooth="yes"/>
      <point x="106.372569998" y="254.898306375"/>
      <point x="110.560222898" y="253.492279138"/>
      <point x="113.390625" y="250.985351562" type="curve" smooth="yes"/>
      <point x="121.863077749" y="243.480340255"/>
      <point x="130.121676168" y="237.049800749"/>
      <point x="138.109335885" y="231.520440664" type="curve"/>
      <point x="178.748365637" y="300.177554901"/>
      <point x="219.562674004" y="363.705033925"/>
      <point x="252.38545023" y="408.895548796" type="curve"/>
      <point x="249.953750959" y="408.839076305"/>
      <point x="247.459744716" y="408.810583648"/>
      <point x="244.912888294" y="408.810583648" type="curve" smooth="yes"/>
      <point x="198.093028519" y="408.810583648"/>
      <point x="133.412498188" y="418.439651578"/>
      <point x="109.623046875" y="440.883789062" type="curve"/>
      <point x="91.986328125" y="408.298828125"/>
      <point x="60.5546875" y="377.0"/>
      <point x="38.0" y="377.0" type="curve" smooth="yes"/>
      <point x="20.0" y="377.0"/>
      <point x="18.0" y="382.0"/>
      <point x="18.0" y="393.0" type="curve" smooth="yes"/>
      <point x="18.0" y="408.0"/>
      <point x="34.724609375" y="452.0"/>
      <point x="42.0" y="482.0" type="curve" smooth="yes"/>
      <point x="47.1474609375" y="503.224609375"/>
      <point x="67.0" y="505.0"/>
      <point x="87.0" y="505.0" type="curve" smooth="yes"/>
      <point x="104.385742188" y="505.0"/>
      <point x="119.256835938" y="497.046875"/>
    </contour>
  </outline>
</glyph>
<glyph name="nine" format="2">
  <advance width="340"/>
  <unicode hex="0039"/>
  <outline>
    <contour>
      <point x="73.083984375" y="17.7802734375" type="curve" smooth="yes"/>
      <point x="155.0" y="38.5405080046"/>
      <point x="214.393178391" y="155.0"/>
      <point x="234.502929688" y="217.918945312" type="curve"/>
      <point x="211.278978945" y="201.050727738"/>
      <point x="179.350252546" y="189.54765834"/>
      <point x="139.819934625" y="189.54765834" type="curve" smooth="yes"/>
      <point x="135.339071381" y="189.54765834"/>
      <point x="130.760536763" y="189.695459045"/>
      <point x="126.0859375" y="190.0" type="curve" smooth="yes"/>
      <point x="55.9763976483" y="194.568094223"/>
      <point x="17.3503585364" y="249.565943451"/>
      <point x="17.3503585364" y="310.42045358" type="curve" smooth="yes"/>
      <point x="17.3503585364" y="329.495787923"/>
      <point x="21.1455959789" y="349.146573936"/>
      <point x="28.9560546875" y="368.0" type="curve" smooth="yes"/>
      <point x="52.0546875" y="423.756835938"/>
      <point x="117.786132812" y="492.0"/>
      <point x="204.0" y="492.0" type="curve" smooth="yes"/>
      <point x="231.744140625" y="492.0"/>
      <point x="265.26953125" y="483.1484375"/>
      <point x="280.396484375" y="470.142578125" type="curve"/>
      <point x="281.915039062" y="489.806640625"/>
      <point x="324.0" y="492.0"/>
      <point x="327.0" y="492.0" type="curve" smooth="yes"/>
      <point x="328.0" y="492.0"/>
      <point x="328.0" y="492.0"/>
      <point x="329.0" y="492.0" type="curve" smooth="yes"/>
      <point x="350.987975298" y="492.0"/>
      <point x="362.112727564" y="491.284806128"/>
      <point x="362.112727564" y="474.128753184" type="curve" smooth="yes"/>
      <point x="362.112727564" y="470.998382731"/>
      <point x="361.742347959" y="467.320641986"/>
      <point x="361.0" y="463.0" type="curve" smooth="yes"/>
      <point x="326.629741805" y="262.956908655"/>
      <point x="271.0" y="26.1649372508"/>
      <point x="95.0" y="-18.0" type="curve" smooth="yes"/>
      <point x="80.6292280145" y="-21.6061604715"/>
      <point x="66.7413144221" y="-23.2182509769"/>
      <point x="53.5733252871" y="-23.2182509769" type="curve" smooth="yes"/>
      <point x="9.93049540743" y="-23.2182509769"/>
      <point x="-25.8042041958" y="-5.50997394202"/>
      <point x="-45.0" y="16.0" type="curve" smooth="yes"/>
      <point x="-50.985031313" y="22.7065657969"/>
      <point x="-58.7012021995" y="35.7100550641"/>
      <point x="-58.7012021995" y="48.9775061486" type="curve" smooth="yes"/>
      <point x="-58.7012021995" y="55.4928343378"/>
      <point x="-56.8404032996" y="62.0718184344"/>
      <point x="-52.0" y="68.0" type="curve" smooth="yes"/>
      <point x="-44.4225642632" y="77.2803041542"/>
      <point x="-32.6276020507" y="81.3793302549"/>
      <point x="-21.1051726635" y="81.3793302549" type="curve" smooth="yes"/>
      <point x="-11.9682188362" y="81.3793302549"/>
      <point x="-3.00263452417" y="78.8018494863"/>
      <point x="3.552734375" y="74.1865234375" type="curve" smooth="yes"/>
      <point x="19.1125372902" y="63.2316001048"/>
      <point x="21.6056735029" y="15.8847315244"/>
      <point x="59.1119471604" y="15.8847315244" type="curve" smooth="yes"/>
      <point x="63.308504804" y="15.8847315244"/>
      <point x="67.9434009085" y="16.4774791333"/>
    </contour>
    <contour>
      <point x="266.522460938" y="338.0" type="curve" smooth="yes"/>
      <point x="269.82553992" y="350.595465299"/>
      <point x="271.69906858" y="363.554556102"/>
      <point x="271.69906858" y="375.950177106" type="curve" smooth="yes"/>
      <point x="271.69906858" y="414.36347866"/>
      <point x="253.706754089" y="447.365533479"/>
      <point x="204.509113444" y="447.365533479" type="curve" smooth="yes"/>
      <point x="201.860244816" y="447.365533479"/>
      <point x="199.120915266" y="447.269864031"/>
      <point x="196.2890625" y="447.07421875" type="curve" smooth="yes"/>
      <point x="158.0" y="444.428710938"/>
      <point x="117.543945312" y="406.055664062"/>
      <point x="96.9560546875" y="366.0" type="curve" smooth="yes"/>
      <point x="88.1060629342" y="348.781484742"/>
      <point x="83.9897026428" y="330.410002333"/>
      <point x="83.9897026428" y="312.965326176" type="curve" smooth="yes"/>
      <point x="83.9897026428" y="269.621917311"/>
      <point x="109.401400687" y="232.0"/>
      <point x="150.756835938" y="232.0" type="curve" smooth="yes"/>
      <point x="204.0" y="232.0"/>
      <point x="248.95214602" y="271.0"/>
    </contour>
  </outline>
</glyph>
<glyph name="colon" format="2">
  <advance width="200"/>
  <unicode hex="003A"/>
  <outline>
    <contour>
      <point x="29.0" y="180.0" type="curve" smooth="yes"/>
      <point x="29.0" y="193.0"/>
      <point x="35.0947265625" y="204.0"/>
      <point x="40.0" y="228.0" type="curve" smooth="yes"/>
      <point x="44.373046875" y="249.3984375"/>
      <point x="65.0" y="251.0"/>
      <point x="85.0" y="251.0" type="curve" smooth="yes"/>
      <point x="86.0" y="251.0"/>
      <point x="87.0" y="251.0"/>
      <point x="88.0" y="251.0" type="curve" smooth="yes"/>
      <point x="108.0" y="251.0"/>
      <point x="121.0" y="251.0"/>
      <point x="121.0" y="230.0" type="curve" smooth="yes"/>
      <point x="121.0" y="190.0"/>
      <point x="82.0" y="164.0"/>
      <point x="49.0" y="164.0" type="curve" smooth="yes"/>
      <point x="31.0" y="164.0"/>
      <point x="29.0" y="169.0"/>
    </contour>
    <contour>
      <point x="0.0" y="16.0" type="curve" smooth="yes"/>
      <point x="0.0" y="29.0"/>
      <point x="6.09486607143" y="40.0"/>
      <point x="11.0" y="64.0" type="curve" smooth="yes"/>
      <point x="15.3734111702" y="85.3983694661"/>
      <point x="36.0" y="87.0"/>
      <point x="56.0" y="87.0" type="curve" smooth="yes"/>
      <point x="57.0" y="87.0"/>
      <point x="58.0" y="87.0"/>
      <point x="59.0" y="87.0" type="curve" smooth="yes"/>
      <point x="79.0" y="87.0"/>
      <point x="92.0" y="87.0"/>
      <point x="92.0" y="66.0" type="curve" smooth="yes"/>
      <point x="92.0" y="26.0"/>
      <point x="53.0" y="0.0"/>
      <point x="20.0" y="0.0" type="curve" smooth="yes"/>
      <point x="2.0" y="0.0"/>
      <point x="0.0" y="5.0"/>
    </contour>
  </outline>
</glyph>
<glyph name="semicolon" format="2">
  <advance width="200"/>
  <unicode hex="003B"/>
  <outline>
    <contour>
      <point x="14.0" y="64.0" type="curve" smooth="yes"/>
      <point x="16.068953119" y="72.6382311348"/>
      <point x="24.6646368507" y="84.9887037313"/>
      <point x="49.7665609909" y="84.9887037313" type="curve" smooth="yes"/>
      <point x="52.5318618152" y="84.9887037313"/>
      <point x="55.4974801466" y="84.8388200618"/>
      <point x="58.6767578125" y="84.517578125" type="curve" smooth="yes"/>
      <point x="78.2296055512" y="82.5415933436"/>
      <point x="85.0582069795" y="72.3181797276"/>
      <point x="85.0582069795" y="62.8172574783" type="curve" smooth="yes"/>
      <point x="85.0582069795" y="61.0677522174"/>
      <point x="84.8266644668" y="59.3427450135"/>
      <point x="84.400390625" y="57.6982421875" type="curve" smooth="yes"/>
      <point x="72.216796875" y="10.697265625"/>
      <point x="27.3154296875" y="-59.078125"/>
      <point x="0.3154296875" y="-76.3017578125" type="curve" smooth="yes"/>
      <point x="-6.38674134657" y="-80.5770442782"/>
      <point x="-12.9759595731" y="-82.4847225453"/>
      <point x="-18.6469410525" y="-82.4847225453" type="curve" smooth="yes"/>
      <point x="-28.3221803135" y="-82.4847225453"/>
      <point x="-35.3246492654" y="-76.9319216505"/>
      <point x="-35.6552734375" y="-68.1103515625" type="curve" smooth="yes"/>
      <point x="-35.6612042519" y="-67.952278204"/>
      <point x="-35.664150733" y="-67.7929939701"/>
      <point x="-35.664150733" y="-67.6324494786" type="curve" smooth="yes"/>
      <point x="-35.664150733" y="-51.7997524805"/>
      <point x="-7.00768395728" y="-23.71022249"/>
    </contour>
    <contour>
      <point x="29.0" y="180.0" type="curve" smooth="yes"/>
      <point x="29.0" y="193.0"/>
      <point x="35.0947265625" y="204.0"/>
      <point x="40.0" y="228.0" type="curve" smooth="yes"/>
      <point x="44.373046875" y="249.3984375"/>
      <point x="65.0" y="251.0"/>
      <point x="85.0" y="251.0" type="curve" smooth="yes"/>
      <point x="86.0" y="251.0"/>
      <point x="87.0" y="251.0"/>
      <point x="88.0" y="251.0" type="curve" smooth="yes"/>
      <point x="108.0" y="251.0"/>
      <point x="121.0" y="251.0"/>
      <point x="121.0" y="230.0" type="curve" smooth="yes"/>
      <point x="121.0" y="190.0"/>
      <point x="82.0" y="164.0"/>
      <point x="49.0" y="164.0" type="curve" smooth="yes"/>
      <point x="31.0" y="164.0"/>
      <point x="29.0" y="169.0"/>
    </contour>
  </outline>
</glyph>
<glyph name="less" format="2">
  <advance width="201"/>
  <unicode hex="003C"/>
  <outline>
    <contour>
      <point x="88.7626953125" y="275.690429688" type="curve" smooth="yes"/>
      <point x="92.212890625" y="280.909179688"/>
      <point x="99.333984375" y="286.750976562"/>
      <point x="111.483398438" y="286.750976562" type="curve" smooth="yes"/>
      <point x="118.486328125" y="286.750976562"/>
      <point x="127.159179688" y="284.809570312"/>
      <point x="137.762695312" y="279.690429688" type="curve" smooth="yes"/>
      <point x="151.438476562" y="273.088867188"/>
      <point x="156.290039062" y="264.458007812"/>
      <point x="156.290039062" y="256.755859375" type="curve" smooth="yes"/>
      <point x="156.290039062" y="252.655273438"/>
      <point x="154.915094175" y="248.818321451"/>
      <point x="152.762695312" y="245.690429688" type="curve" smooth="yes"/>
      <point x="128.196289063" y="209.990234375"/>
      <point x="77.9437162642" y="157.0"/>
      <point x="46.0" y="134.0" type="curve"/>
      <point x="86.45703125" y="105.545898438"/>
      <point x="150.063786764" y="52.7559283109"/>
      <point x="155.1328125" y="29.9453125" type="curve" smooth="yes"/>
      <point x="155.86328125" y="26.658203125"/>
      <point x="156.201171875" y="23.5361328125"/>
      <point x="156.201171875" y="20.623046875" type="curve" smooth="yes"/>
      <point x="156.201171875" y="7.1611328125"/>
      <point x="148.97265625" y="-1.8173828125"/>
      <point x="139.822265625" y="-1.8173828125" type="curve" smooth="yes"/>
      <point x="138.3046875" y="-1.8173828125"/>
      <point x="136.732421875" y="-1.5703125"/>
      <point x="135.1328125" y="-1.0546875" type="curve" smooth="yes"/>
      <point x="120.1328125" y="3.7763671875"/>
      <point x="104.93359375" y="33.6787109375"/>
      <point x="11.0" y="92.0" type="curve" smooth="yes"/>
      <point x="0.18754314574" y="98.7133264186"/>
      <point x="-3.75926726473" y="112.03518147"/>
      <point x="-3.75926726473" y="125.345901315" type="curve" smooth="yes"/>
      <point x="-3.75926726473" y="135.425210255"/>
      <point x="-1.49616232117" y="145.498134257"/>
      <point x="1.7626953125" y="152.690429688" type="curve" smooth="yes"/>
      <point x="8.2666015625" y="167.044921875"/>
      <point x="38.5205078125" y="199.69140625"/>
    </contour>
  </outline>
</glyph>
<glyph name="equal" format="2">
  <advance width="285"/>
  <unicode hex="003D"/>
  <outline>
    <contour>
      <point x="222.42578125" y="185.858398438" type="curve" smooth="yes"/>
      <point x="223.883558394" y="186.375466691"/>
      <point x="225.48291523" y="186.63661536"/>
      <point x="227.181039566" y="186.63661536" type="curve" smooth="yes"/>
      <point x="236.310313027" y="186.63661536"/>
      <point x="248.294201371" y="179.088799826"/>
      <point x="256.48046875" y="163.180664062" type="curve" smooth="yes"/>
      <point x="259.906310478" y="156.523145151"/>
      <point x="261.322490624" y="150.76260526"/>
      <point x="261.322490624" y="145.895759916" type="curve" smooth="yes"/>
      <point x="261.322490624" y="135.635140949"/>
      <point x="255.027855938" y="129.346813722"/>
      <point x="248.0" y="127.0" type="curve" smooth="yes"/>
      <point x="222.902593024" y="118.617700227"/>
      <point x="166.359031937" y="113.156941665"/>
      <point x="115.383858055" y="113.156941665" type="curve" smooth="yes"/>
      <point x="72.8176670603" y="113.156941665"/>
      <point x="34.1342452464" y="116.964662693"/>
      <point x="20.8857421875" y="126.05859375" type="curve" smooth="yes"/>
      <point x="10.6918329419" y="133.056031618"/>
      <point x="5.3164864644" y="141.776435527"/>
      <point x="5.3164864644" y="149.209131526" type="curve" smooth="yes"/>
      <point x="5.3164864644" y="154.708543506"/>
      <point x="8.25918811527" y="159.503007404"/>
      <point x="14.3701171875" y="162.373046875" type="curve" smooth="yes"/>
      <point x="18.8474522024" y="164.475799493"/>
      <point x="25.5321334952" y="165.118864935"/>
      <point x="34.2416214359" y="165.118864935" type="curve" smooth="yes"/>
      <point x="47.9585493384" y="165.118864935"/>
      <point x="66.6978856513" y="163.523780639"/>
      <point x="89.74653131" y="163.523780639" type="curve" smooth="yes"/>
      <point x="124.827896844" y="163.523780639"/>
      <point x="169.892463681" y="167.219047407"/>
    </contour>
    <contour>
      <point x="228.020507812" y="280.98046875" type="curve" smooth="yes"/>
      <point x="229.478284957" y="281.497537004"/>
      <point x="231.077641792" y="281.758685673"/>
      <point x="232.775766129" y="281.758685673" type="curve" smooth="yes"/>
      <point x="241.90503959" y="281.758685673"/>
      <point x="253.888927933" y="274.210870139"/>
      <point x="262.075195312" y="258.302734375" type="curve" smooth="yes"/>
      <point x="265.50103704" y="251.645215464"/>
      <point x="266.917217186" y="245.884675573"/>
      <point x="266.917217186" y="241.017830229" type="curve" smooth="yes"/>
      <point x="266.917217186" y="230.757211262"/>
      <point x="260.6225825" y="224.468884034"/>
      <point x="253.594726562" y="222.122070312" type="curve" smooth="yes"/>
      <point x="228.497319586" y="213.73977054"/>
      <point x="171.9537585" y="208.279011977"/>
      <point x="120.978584617" y="208.279011977" type="curve" smooth="yes"/>
      <point x="78.4123936228" y="208.279011977"/>
      <point x="39.7289718089" y="212.086733006"/>
      <point x="26.48046875" y="221.180664062" type="curve" smooth="yes"/>
      <point x="16.2865595044" y="228.178101931"/>
      <point x="10.9112130269" y="236.89850584"/>
      <point x="10.9112130269" y="244.331201839" type="curve" smooth="yes"/>
      <point x="10.9112130269" y="249.830613819"/>
      <point x="13.8539146778" y="254.625077716"/>
      <point x="19.96484375" y="257.495117188" type="curve" smooth="yes"/>
      <point x="24.4421787649" y="259.597869805"/>
      <point x="31.1268600577" y="260.240935247"/>
      <point x="39.8363479984" y="260.240935247" type="curve" smooth="yes"/>
      <point x="53.5532759009" y="260.240935247"/>
      <point x="72.2926122138" y="258.645850952"/>
      <point x="95.3412578725" y="258.645850952" type="curve" smooth="yes"/>
      <point x="130.422623407" y="258.645850952"/>
      <point x="175.487190243" y="262.34111772"/>
    </contour>
  </outline>
</glyph>
<glyph name="bracketleft" format="2">
  <advance width="148"/>
  <unicode hex="005B"/>
  <outline>
    <contour>
      <point x="107.0" y="594.0" type="curve" smooth="yes"/>
      <point x="109.015625" y="595.716796875"/>
      <point x="111.1640625" y="596.950195312"/>
      <point x="113.307617188" y="597.73046875" type="curve" smooth="yes"/>
      <point x="115.209998581" y="598.422889293"/>
      <point x="117.110680364" y="598.758887381"/>
      <point x="118.916771166" y="598.758887381" type="curve" smooth="yes"/>
      <point x="119.055887808" y="598.758887381"/>
      <point x="119.194443235" y="598.756893883"/>
      <point x="119.332394997" y="598.752916221" type="curve" smooth="yes"/>
      <point x="121.396426327" y="599.091662182"/>
      <point x="123.664637814" y="599.287674283"/>
      <point x="126.127655324" y="599.287674283" type="curve" smooth="yes"/>
      <point x="127.67619412" y="599.287674283"/>
      <point x="129.301736611" y="599.210193845"/>
      <point x="131.001953125" y="599.041992188" type="curve" smooth="yes"/>
      <point x="136.299705149" y="598.517748907"/>
      <point x="141.27651525" y="598.276596177"/>
      <point x="146.004317355" y="598.276596177" type="curve" smooth="yes"/>
      <point x="180.670086867" y="598.276596177"/>
      <point x="201.948451246" y="611.241678918"/>
      <point x="238.196289062" y="620.639648438" type="curve" smooth="yes"/>
      <point x="239.280503842" y="620.920426825"/>
      <point x="240.426695781" y="621.061372449"/>
      <point x="241.61891388" y="621.061372449" type="curve" smooth="yes"/>
      <point x="242.072895736" y="621.061372449"/>
      <point x="242.533551349" y="621.040935447"/>
      <point x="243.0" y="621.0" type="curve" smooth="yes"/>
      <point x="252.095703125" y="620.204101562"/>
      <point x="263.375976562" y="611.640625"/>
      <point x="270.14453125" y="595.080078125" type="curve" smooth="yes"/>
      <point x="272.540457591" y="589.216668041"/>
      <point x="273.560136247" y="584.117917667"/>
      <point x="273.560136247" y="579.751304122" type="curve" smooth="yes"/>
      <point x="273.560136247" y="578.956496047"/>
      <point x="273.526353236" y="578.185944424"/>
      <point x="273.4609375" y="577.439453125" type="curve" smooth="yes"/>
      <point x="272.567382812" y="567.217773438"/>
      <point x="265.748046875" y="561.500976562"/>
      <point x="258.54296875" y="559.775390625" type="curve" smooth="yes"/>
      <point x="236.182521025" y="554.420497464"/>
      <point x="202.902874998" y="546.612651557"/>
      <point x="172.048529044" y="546.612651557" type="curve" smooth="yes"/>
      <point x="155.619879056" y="546.612651557"/>
      <point x="139.878830139" y="548.826267624"/>
      <point x="126.839843229" y="554.802451054" type="curve"/>
      <point x="113.686732103" y="442.9859324"/>
      <point x="73.2283876099" y="118.759112791"/>
      <point x="53.7879521312" y="-92.7479005006" type="curve"/>
      <point x="55.2929232406" y="-92.5802001038"/>
      <point x="56.8928472548" y="-92.4877162534"/>
      <point x="58.5846860511" y="-92.4877162534" type="curve" smooth="yes"/>
      <point x="60.1332250026" y="-92.4877162534"/>
      <point x="61.7587676679" y="-92.5651967171"/>
      <point x="63.458984375" y="-92.7333984375" type="curve" smooth="yes"/>
      <point x="68.7567363984" y="-93.2576417188"/>
      <point x="73.7335464997" y="-93.4987944481"/>
      <point x="78.4613486038" y="-93.4987944481" type="curve" smooth="yes"/>
      <point x="113.127118116" y="-93.4987944481"/>
      <point x="134.405482496" y="-80.5337117076"/>
      <point x="170.653320312" y="-71.1357421875" type="curve" smooth="yes"/>
      <point x="171.737535092" y="-70.8549638003"/>
      <point x="172.883727031" y="-70.7140181765"/>
      <point x="174.07594513" y="-70.7140181765" type="curve" smooth="yes"/>
      <point x="174.529926987" y="-70.7140181765"/>
      <point x="174.990582599" y="-70.7344551775"/>
      <point x="175.45703125" y="-70.775390625" type="curve" smooth="yes"/>
      <point x="184.552734375" y="-71.5712890625"/>
      <point x="195.833007812" y="-80.134765625"/>
      <point x="202.6015625" y="-96.6953125" type="curve" smooth="yes"/>
      <point x="204.997488841" y="-102.558722583"/>
      <point x="206.017167497" y="-107.657472958"/>
      <point x="206.017167497" y="-112.024086503" type="curve" smooth="yes"/>
      <point x="206.017167497" y="-112.818894578"/>
      <point x="205.983384486" y="-113.589446201"/>
      <point x="205.91796875" y="-114.3359375" type="curve" smooth="yes"/>
      <point x="205.024414062" y="-124.557617188"/>
      <point x="198.205078125" y="-130.274414062"/>
      <point x="191.0" y="-132.0" type="curve" smooth="yes"/>
      <point x="168.639552275" y="-137.35489316"/>
      <point x="135.359906248" y="-145.162739068"/>
      <point x="104.505560294" y="-145.162739068" type="curve" smooth="yes"/>
      <point x="83.992364231" y="-145.162739068"/>
      <point x="64.5511796873" y="-141.711578178"/>
      <point x="50.103515625" y="-131.793945312" type="curve" smooth="yes"/>
      <point x="49.7735108827" y="-131.567408864"/>
      <point x="49.4485563533" y="-131.339068257"/>
      <point x="49.128670886" y="-131.109025555" type="curve"/>
      <point x="44.3188430515" y="-140.960299394"/>
      <point x="31.5059114512" y="-142.865234375"/>
      <point x="19.677734375" y="-142.865234375" type="curve" smooth="yes"/>
      <point x="14.6669921875" y="-142.865234375"/>
      <point x="9.4365234375" y="-142.448242188"/>
      <point x="4.25390625" y="-141.995117188" type="curve" smooth="yes"/>
      <point x="3.2578125" y="-141.907226562"/>
      <point x="3.2578125" y="-141.907226562"/>
      <point x="2.26171875" y="-141.8203125" type="curve" smooth="yes"/>
      <point x="-16.484375" y="-140.1796875"/>
      <point x="-29.9404296875" y="-139.002929688"/>
      <point x="-29.9404296875" y="-121.443359375" type="curve" smooth="yes"/>
      <point x="-29.9404296875" y="-48.6757561101"/>
      <point x="67.5330708451" y="525.212586225"/>
      <point x="103.435557969" y="589.177247342" type="curve" smooth="yes"/>
      <point x="103.77816243" y="589.877169364"/>
      <point x="104.186208091" y="590.551582747"/>
      <point x="104.660412935" y="591.196624189" type="curve" smooth="yes"/>
      <point x="105.476569444" y="592.428318332"/>
      <point x="106.257136356" y="593.367257616"/>
    </contour>
  </outline>
</glyph>
<glyph name="backslash" format="2">
  <advance width="276"/>
  <unicode hex="005C"/>
  <outline>
    <contour>
      <point x="309.0" y="-60.94140625" type="curve" smooth="yes"/>
      <point x="309.1081232" y="-62.1774379062"/>
      <point x="309.161174203" y="-63.3447008987"/>
      <point x="309.161174203" y="-64.4473661099" type="curve" smooth="yes"/>
      <point x="309.161174203" y="-82.0082575949"/>
      <point x="295.705688948" y="-83.1850194639"/>
      <point x="276.958984375" y="-84.8251953125" type="curve" smooth="yes"/>
      <point x="275.962890625" y="-84.912109375"/>
      <point x="275.962890625" y="-84.912109375"/>
      <point x="274.966796875" y="-85.0" type="curve" smooth="yes"/>
      <point x="269.783817102" y="-85.45321223"/>
      <point x="264.55378366" y="-85.8700107358"/>
      <point x="259.542721773" y="-85.8700107358" type="curve" smooth="yes"/>
      <point x="245.290822946" y="-85.8700107358"/>
      <point x="232.810148705" y="-82.4985967648"/>
      <point x="228.220703125" y="-67.0048828125" type="curve" smooth="yes"/>
      <point x="159.08203125" y="166.420898438"/>
      <point x="10.7294921875" y="552.000976562"/>
      <point x="-18.033203125" y="611.0" type="curve" smooth="yes"/>
      <point x="-19.0891788743" y="613.165887165"/>
      <point x="-19.5685061027" y="615.228730937"/>
      <point x="-19.5685061027" y="617.126730082" type="curve" smooth="yes"/>
      <point x="-19.5685061027" y="623.737368445"/>
      <point x="-13.7538119818" y="628.348285078"/>
      <point x="-6.23639460557" y="628.348285078" type="curve" smooth="yes"/>
      <point x="-3.95393473382" y="628.348285078"/>
      <point x="-1.51450616899" y="627.923219199"/>
      <point x="0.966796875" y="627.0" type="curve" smooth="yes"/>
      <point x="43.966796875" y="611.0"/>
      <point x="302.448242188" y="13.9384765625"/>
    </contour>
  </outline>
</glyph>
<glyph name="underscore" format="2">
  <advance width="446"/>
  <unicode hex="005F"/>
  <outline>
    <contour>
      <point x="282.056640625" y="-3.216796875" type="curve" smooth="yes"/>
      <point x="283.514608591" y="-2.69950775726"/>
      <point x="285.114193317" y="-2.43825328236"/>
      <point x="286.812565797" y="-2.43825328236" type="curve" smooth="yes"/>
      <point x="295.941755978" y="-2.43825328236"/>
      <point x="307.925260069" y="-9.98678282454"/>
      <point x="316.111328125" y="-25.89453125" type="curve" smooth="yes"/>
      <point x="319.537169853" y="-32.5520501612"/>
      <point x="320.953349999" y="-38.3125900525"/>
      <point x="320.953349999" y="-43.1794353965" type="curve" smooth="yes"/>
      <point x="320.953349999" y="-53.4400543632"/>
      <point x="314.658715313" y="-59.7283815908"/>
      <point x="307.630859375" y="-62.0751953125" type="curve" smooth="yes"/>
      <point x="281.085271897" y="-70.9392972526"/>
      <point x="172.746138454" y="-78.4073845475"/>
      <point x="80.895130879" y="-78.4073845475" type="curve" smooth="yes"/>
      <point x="13.3878589563" y="-78.4073845475"/>
      <point x="-45.2129644822" y="-74.3733217739"/>
      <point x="-55.888671875" y="-63.89453125" type="curve" smooth="yes"/>
      <point x="-63.5891342441" y="-56.3361167205"/>
      <point x="-67.4478681689" y="-48.1224684659"/>
      <point x="-67.4478681689" y="-41.2885756409" type="curve" smooth="yes"/>
      <point x="-67.4478681689" y="-34.4976234221"/>
      <point x="-63.6374744225" y="-29.0691417864"/>
      <point x="-56.0" y="-27.0" type="curve" smooth="yes"/>
      <point x="-52.3717352191" y="-26.0173387364"/>
      <point x="-44.5014227452" y="-25.6825539307"/>
      <point x="-33.3814764161" y="-25.6825539307" type="curve" smooth="yes"/>
      <point x="-9.60065028643" y="-25.6825539307"/>
      <point x="29.0423697658" y="-27.2136915685"/>
      <point x="72.8410191067" y="-27.2136915685" type="curve" smooth="yes"/>
      <point x="142.567524374" y="-27.2136915685"/>
      <point x="225.360432487" y="-23.3331834744"/>
    </contour>
  </outline>
</glyph>
<glyph name="braceright" format="2">
  <advance width="171"/>
  <unicode hex="007D"/>
  <outline>
    <contour>
      <point x="67.8349609375" y="642.697265625" type="curve" smooth="yes"/>
      <point x="204.0703125" y="593.048828125"/>
      <point x="128.41015625" y="247.97265625"/>
      <point x="224.783203125" y="212.896484375" type="curve" smooth="yes"/>
      <point x="233.350856656" y="209.778026724"/>
      <point x="239.660592437" y="199.714427914"/>
      <point x="239.660592437" y="190.837540012" type="curve" smooth="yes"/>
      <point x="239.660592437" y="189.820951649"/>
      <point x="239.577840157" y="188.819927017"/>
      <point x="239.40625" y="187.846679688" type="curve" smooth="yes"/>
      <point x="238.247701814" y="181.275600003"/>
      <point x="233.039474187" y="175.972570396"/>
      <point x="221.908983144" y="175.696148565" type="curve" smooth="yes"/>
      <point x="147.418425047" y="162.143030642"/>
      <point x="108.297139145" y="-182.7131317"/>
      <point x="-49.6874897412" y="-182.7131317" type="curve" smooth="yes"/>
      <point x="-56.2113297663" y="-182.7131317"/>
      <point x="-62.9378563166" y="-182.125080788"/>
      <point x="-69.8779296875" y="-180.901367188" type="curve" smooth="yes"/>
      <point x="-85.8809861971" y="-178.079048124"/>
      <point x="-91.7272885924" y="-170.931154098"/>
      <point x="-91.7272885924" y="-163.551174848" type="curve" smooth="yes"/>
      <point x="-91.7272885924" y="-162.693312478"/>
      <point x="-91.6482923871" y="-161.832314134"/>
      <point x="-91.4970703125" y="-160.974609375" type="curve" smooth="yes"/>
      <point x="-89.826171875" y="-151.502929688"/>
      <point x="-79.349609375" y="-142.436523438"/>
      <point x="-69.1875" y="-142.436523438" type="curve" smooth="yes"/>
      <point x="-69.1870709471" y="-142.43652344" type="line" smooth="yes"/>
      <point x="19.9350571068" y="-142.43652344"/>
      <point x="67.0466430769" y="121.97567766"/>
      <point x="173.013925267" y="191.291705512" type="curve"/>
      <point x="51.3976505614" y="267.319117383"/>
      <point x="122.560229449" y="576.130772079"/>
      <point x="59.7080078125" y="611.6015625" type="curve" smooth="yes"/>
      <point x="54.5400247836" y="614.518446257"/>
      <point x="52.1528823455" y="620.858251924"/>
      <point x="52.1528823455" y="627.123082243" type="curve" smooth="yes"/>
      <point x="52.1528823455" y="628.549576588"/>
      <point x="52.2766479071" y="629.972183706"/>
      <point x="52.51953125" y="631.349609375" type="curve" smooth="yes"/>
      <point x="53.6801235809" y="637.935771057"/>
      <point x="57.5650053871" y="643.487607067"/>
      <point x="63.6661127727" y="643.487607067" type="curve" smooth="yes"/>
      <point x="64.2747285752" y="643.487607067"/>
      <point x="64.9053981596" y="643.432360443"/>
      <point x="65.5576171875" y="643.317382812" type="curve" smooth="yes"/>
      <point x="66.2900390625" y="643.188476562"/>
      <point x="67.048828125" y="642.983398438"/>
    </contour>
  </outline>
</glyph>
<glyph name="sterling" format="2">
  <advance width="350"/>
  <unicode hex="00A3"/>
  <outline>
    <contour>
      <point x="294.0" y="-26.0" type="curve" smooth="yes"/>
      <point x="216.584960938" y="-12.7421875"/>
      <point x="132.931640625" y="-0.873046875"/>
      <point x="0.1259765625" y="-0.873046875" type="curve" smooth="yes"/>
      <point x="-7.7412109375" y="-0.873046875"/>
      <point x="-15.779296875" y="-0.9140625"/>
      <point x="-24.0" y="-1.0" type="curve" smooth="yes"/>
      <point x="-24.080078125" y="-1.0"/>
      <point x="-24.158203125" y="-1.0"/>
      <point x="-24.2333984375" y="-1.0" type="curve" smooth="yes"/>
      <point x="-42.1962890625" y="-0.935546875"/>
      <point x="-48.7509765625" y="6.54296875"/>
      <point x="-48.7509765625" y="14.8701171875" type="curve" smooth="yes"/>
      <point x="-48.7509765625" y="24.4873046875"/>
      <point x="-40.007858773" y="35.2356140097"/>
      <point x="-30.0" y="37.0" type="curve" smooth="yes"/>
      <point x="7.79215325586" y="43.6627584643"/>
      <point x="42.9497365886" y="124.429455085"/>
      <point x="79.3893962573" y="219.922793615" type="curve"/>
      <point x="54.293603738" y="221.986808447"/>
      <point x="32.6650118168" y="225.344290888"/>
      <point x="25.556640625" y="230.223632812" type="curve" smooth="yes"/>
      <point x="15.3623046875" y="237.221679688"/>
      <point x="9.9873046875" y="245.94140625"/>
      <point x="9.9873046875" y="253.374023438" type="curve" smooth="yes"/>
      <point x="9.9873046875" y="258.874023438"/>
      <point x="12.9296875" y="263.66796875"/>
      <point x="19.041015625" y="266.538085938" type="curve" smooth="yes"/>
      <point x="23.5185546875" y="268.641601562"/>
      <point x="30.203125" y="269.284179688"/>
      <point x="38.912109375" y="269.284179688" type="curve" smooth="yes"/>
      <point x="48.9657028565" y="269.284179688"/>
      <point x="75.1479323485" y="268.427490168"/>
      <point x="97.4901207863" y="267.969915708" type="curve"/>
      <point x="148.347677685" y="403.798890669"/>
      <point x="202.850957487" y="549.017578125"/>
      <point x="271.198242188" y="549.017578125" type="curve" smooth="yes"/>
      <point x="301.694335938" y="549.017578125"/>
      <point x="313.061523438" y="531.529296875"/>
      <point x="313.061523438" y="508.9296875" type="curve" smooth="yes"/>
      <point x="313.061523438" y="477.401367188"/>
      <point x="297.455078125" y="440.943359375"/>
      <point x="265.727539062" y="440.943359375" type="curve" smooth="yes"/>
      <point x="262.646484375" y="440.943359375"/>
      <point x="259.405273438" y="441.283203125"/>
      <point x="256.0" y="442.0" type="curve" smooth="yes"/>
      <point x="252.720703125" y="442.690429688"/>
      <point x="249.5625" y="443.076171875"/>
      <point x="246.547851562" y="443.076171875" type="curve" smooth="yes"/>
      <point x="235.888671875" y="443.076171875"/>
      <point x="227.028320312" y="438.251953125"/>
      <point x="221.0" y="425.0" type="curve" smooth="yes"/>
      <point x="206.330797816" y="392.756046977"/>
      <point x="191.819698309" y="335.629239088"/>
      <point x="171.652925537" y="272.45778332" type="curve"/>
      <point x="202.964312211" y="277.292513606"/>
      <point x="239.092608756" y="285.673353613"/>
      <point x="271.0" y="297.0" type="curve" smooth="yes"/>
      <point x="272.458007812" y="297.517578125"/>
      <point x="274.056640625" y="297.778320312"/>
      <point x="275.754882812" y="297.778320312" type="curve" smooth="yes"/>
      <point x="284.884765625" y="297.778320312"/>
      <point x="296.868164062" y="290.23046875"/>
      <point x="305.0546875" y="274.322265625" type="curve" smooth="yes"/>
      <point x="308.48046875" y="267.665039062"/>
      <point x="309.896484375" y="261.904296875"/>
      <point x="309.896484375" y="257.038085938" type="curve" smooth="yes"/>
      <point x="309.896484375" y="246.77734375"/>
      <point x="303.6015625" y="240.48828125"/>
      <point x="296.57421875" y="238.141601562" type="curve" smooth="yes"/>
      <point x="272.735235309" y="230.180123163"/>
      <point x="203.471055584" y="218.559571501"/>
      <point x="152.899321988" y="217.4140308" type="curve"/>
      <point x="129.858593369" y="154.56841704"/>
      <point x="100.000313439" y="91.0923585866"/>
      <point x="58.0908203125" y="43.9443359375" type="curve"/>
      <point x="58.4111328125" y="43.974609375"/>
      <point x="58.7138671875" y="43.9931640625"/>
      <point x="59.0" y="44.0" type="curve" smooth="yes"/>
      <point x="164.0" y="46.5"/>
      <point x="182.0" y="49.6630859375"/>
      <point x="279.0" y="50.0" type="curve" smooth="yes"/>
      <point x="280.569335938" y="50.005859375"/>
      <point x="282.905273438" y="50.0498046875"/>
      <point x="285.760742188" y="50.0498046875" type="curve" smooth="yes"/>
      <point x="302.950195312" y="50.0498046875"/>
      <point x="338.979492188" y="48.4384765625"/>
      <point x="340.0" y="27.0" type="curve" smooth="yes"/>
      <point x="340.012695312" y="26.7275390625"/>
      <point x="340.01953125" y="26.447265625"/>
      <point x="340.01953125" y="26.16015625" type="curve" smooth="yes"/>
      <point x="340.01953125" y="10.4287109375"/>
      <point x="320.65234375" y="-26.3095703125"/>
      <point x="297.637695312" y="-26.3095703125" type="curve" smooth="yes"/>
      <point x="296.434570312" y="-26.3095703125"/>
      <point x="295.220703125" y="-26.208984375"/>
    </contour>
  </outline>
</glyph>
<glyph name="guillemotleft" format="2">
  <advance width="311"/>
  <unicode hex="00AB"/>
  <outline>
    <contour>
      <point x="199.47265625" y="264.934570312" type="curve" smooth="yes"/>
      <point x="202.922851562" y="270.153320312"/>
      <point x="210.043945312" y="275.995117188"/>
      <point x="222.193359375" y="275.995117188" type="curve" smooth="yes"/>
      <point x="229.196289062" y="275.995117188"/>
      <point x="237.869140625" y="274.053710938"/>
      <point x="248.47265625" y="268.934570312" type="curve" smooth="yes"/>
      <point x="262.1484375" y="262.333007812"/>
      <point x="267.0" y="253.702148438"/>
      <point x="267.0" y="246.0" type="curve" smooth="yes"/>
      <point x="267.0" y="241.899414062"/>
      <point x="265.625" y="238.0625"/>
      <point x="263.47265625" y="234.934570312" type="curve" smooth="yes"/>
      <point x="238.90625" y="199.234375"/>
      <point x="194.943359375" y="156.0"/>
      <point x="163.0" y="133.0" type="curve"/>
      <point x="203.45703125" y="104.545898438"/>
      <point x="266.241210938" y="51.5732421875"/>
      <point x="271.310546875" y="28.7626953125" type="curve" smooth="yes"/>
      <point x="272.041015625" y="25.4755859375"/>
      <point x="272.37890625" y="22.353515625"/>
      <point x="272.37890625" y="19.4404296875" type="curve" smooth="yes"/>
      <point x="272.37890625" y="5.978515625"/>
      <point x="265.150390625" y="-3.0"/>
      <point x="256.0" y="-3.0" type="curve" smooth="yes"/>
      <point x="254.482421875" y="-3.0"/>
      <point x="252.91015625" y="-2.7529296875"/>
      <point x="251.310546875" y="-2.2373046875" type="curve" smooth="yes"/>
      <point x="236.310546875" y="2.59375"/>
      <point x="221.933160442" y="32.6780130478"/>
      <point x="128.0" y="91.0" type="curve" smooth="yes"/>
      <point x="117.187564593" y="97.7133131021"/>
      <point x="113.240801874" y="111.035104388"/>
      <point x="113.240801874" y="124.345790779" type="curve" smooth="yes"/>
      <point x="113.240801874" y="134.425120783"/>
      <point x="115.503900306" y="144.498083172"/>
      <point x="118.762695312" y="151.690429688" type="curve" smooth="yes"/>
      <point x="125.266601562" y="166.044921875"/>
      <point x="149.23046875" y="188.935546875"/>
    </contour>
    <contour>
      <point x="96.0" y="286.0" type="curve" smooth="yes"/>
      <point x="99.4501953125" y="291.21875"/>
      <point x="106.571289062" y="297.060546875"/>
      <point x="118.720703125" y="297.060546875" type="curve" smooth="yes"/>
      <point x="125.723632812" y="297.060546875"/>
      <point x="134.396484375" y="295.119140625"/>
      <point x="145.0" y="290.0" type="curve" smooth="yes"/>
      <point x="158.67578125" y="283.3984375"/>
      <point x="163.52734375" y="274.767578125"/>
      <point x="163.52734375" y="267.065429688" type="curve" smooth="yes"/>
      <point x="163.52734375" y="262.96484375"/>
      <point x="162.15234375" y="259.127929688"/>
      <point x="160.0" y="256.0" type="curve" smooth="yes"/>
      <point x="135.43359375" y="220.299804688"/>
      <point x="77.9437162642" y="157.0"/>
      <point x="46.0" y="134.0" type="curve"/>
      <point x="86.45703125" y="105.545898438"/>
      <point x="159.930664062" y="43.810546875"/>
      <point x="165.0" y="21.0" type="curve" smooth="yes"/>
      <point x="165.73046875" y="17.712890625"/>
      <point x="166.068359375" y="14.5908203125"/>
      <point x="166.068359375" y="11.677734375" type="curve" smooth="yes"/>
      <point x="166.068359375" y="-1.7841796875"/>
      <point x="158.83984375" y="-10.7626953125"/>
      <point x="149.689453125" y="-10.7626953125" type="curve" smooth="yes"/>
      <point x="148.171875" y="-10.7626953125"/>
      <point x="146.599609375" y="-10.515625"/>
      <point x="145.0" y="-10.0" type="curve" smooth="yes"/>
      <point x="130.0" y="-5.1689453125"/>
      <point x="104.933160442" y="33.6780130478"/>
      <point x="11.0" y="92.0" type="curve" smooth="yes"/>
      <point x="0.187564593388" y="98.713313102"/>
      <point x="-3.75919812589" y="112.035104387"/>
      <point x="-3.75919812589" y="125.345790779" type="curve" smooth="yes"/>
      <point x="-3.75919812589" y="135.425120783"/>
      <point x="-1.49609969383" y="145.498083172"/>
      <point x="1.7626953125" y="152.690429688" type="curve" smooth="yes"/>
      <point x="8.2666015625" y="167.044921875"/>
      <point x="45.7578125" y="210.000976562"/>
    </contour>
  </outline>
</glyph>
<glyph name="uni05D1" format="2">
  <advance width="274"/>
  <unicode hex="05D1"/>
  <outline>
    <contour>
      <point x="59.0" y="0.0" type="curve" smooth="yes"/>
      <point x="-29.0457757445" y="0.0"/>
      <point x="-69.9510006507" y="46.5801163005"/>
      <point x="-69.9510006507" y="67.9538667077" type="curve" smooth="yes"/>
      <point x="-69.9510006507" y="74.317700016"/>
      <point x="-66.3247743085" y="78.4470024495"/>
      <point x="-59.2369002173" y="78.4470024495" type="curve" smooth="yes"/>
      <point x="-56.8739633474" y="78.4470024495"/>
      <point x="-54.1262973016" y="77.9880698148"/>
      <point x="-51.0" y="77.0" type="curve" smooth="yes"/>
      <point x="-37.8808720993" y="72.8536847189"/>
      <point x="-1.93075262039" y="45.616357917"/>
      <point x="49.4446393642" y="45.616357917" type="curve" smooth="yes"/>
      <point x="52.8942939714" y="45.616357917"/>
      <point x="56.413494838" y="45.7391599093"/>
      <point x="60.0" y="46.0" type="curve" smooth="yes"/>
      <point x="115.0" y="50.0"/>
      <point x="161.672473868" y="93.0"/>
      <point x="166.0" y="147.0" type="curve" smooth="yes"/>
      <point x="166.202148438" y="149.522460938"/>
      <point x="166.299804688" y="151.952148438"/>
      <point x="166.299804688" y="154.290039062" type="curve" smooth="yes"/>
      <point x="166.299804688" y="192.068359375"/>
      <point x="138.0" y="208.0"/>
      <point x="106.0" y="208.0" type="curve" smooth="yes"/>
      <point x="71.0" y="208.0"/>
      <point x="56.0" y="193.782226562"/>
      <point x="40.0" y="185.0" type="curve" smooth="yes"/>
      <point x="33.4838935855" y="181.423379823"/>
      <point x="27.9273484021" y="180.000925028"/>
      <point x="23.3532465374" y="180.000925028" type="curve" smooth="yes"/>
      <point x="15.9939008806" y="180.000925028"/>
      <point x="11.1777184928" y="183.683106705"/>
      <point x="9.0" y="188.0" type="curve" smooth="yes"/>
      <point x="8.3836876563" y="189.221716504"/>
      <point x="8.08600972551" y="190.567132153"/>
      <point x="8.08600972551" y="192.013850274" type="curve" smooth="yes"/>
      <point x="8.08600972551" y="211.955717361"/>
      <point x="64.3714057071" y="250.889255361"/>
      <point x="122.452091347" y="250.925923634" type="curve" smooth="yes"/>
      <point x="178.919399901" y="250.925923634"/>
      <point x="243.553702044" y="224.153661419"/>
      <point x="243.553702044" y="159.363207318" type="curve" smooth="yes"/>
      <point x="243.553702044" y="155.180451178"/>
      <point x="243.390821449" y="151.133647881"/>
      <point x="243.0" y="147.0" type="curve" smooth="yes"/>
      <point x="234.018054595" y="51.9995855277"/>
      <point x="149.0" y="0.0"/>
    </contour>
  </outline>
</glyph>
<glyph name="uni05D2" format="2">
  <advance width="526"/>
  <unicode hex="05D2"/>
  <outline>
    <contour>
      <point x="151.0" y="48.0" type="curve" smooth="yes"/>
      <point x="199.0" y="48.0"/>
      <point x="258.0" y="10.0"/>
      <point x="298.0" y="10.0" type="curve" smooth="yes"/>
      <point x="373.0" y="10.0"/>
      <point x="405.0" y="100.0"/>
      <point x="405.0" y="178.0" type="curve" smooth="yes"/>
      <point x="405.0" y="210.0"/>
      <point x="440.0" y="219.0"/>
      <point x="476.0" y="219.0" type="curve" smooth="yes"/>
      <point x="486.0" y="219.0"/>
      <point x="496.0" y="213.0"/>
      <point x="496.0" y="200.0" type="curve" smooth="yes"/>
      <point x="496.0" y="92.0"/>
      <point x="396.0" y="-37.0"/>
      <point x="292.0" y="-37.0" type="curve" smooth="yes"/>
      <point x="256.0" y="-37.0"/>
      <point x="204.0" y="-5.0"/>
      <point x="168.0" y="-5.0" type="curve" smooth="yes"/>
      <point x="139.0" y="-5.0"/>
      <point x="83.0" y="-34.0"/>
      <point x="46.0" y="-34.0" type="curve" smooth="yes"/>
      <point x="-44.0" y="-34.0"/>
      <point x="-113.0" y="13.0"/>
      <point x="-113.0" y="34.0" type="curve" smooth="yes"/>
      <point x="-113.0" y="40.0"/>
      <point x="-111.0" y="43.0"/>
      <point x="-103.0" y="43.0" type="curve" smooth="yes"/>
      <point x="-68.0" y="43.0"/>
      <point x="-45.0" y="16.0"/>
      <point x="5.0" y="16.0" type="curve" smooth="yes"/>
      <point x="66.0" y="16.0"/>
      <point x="106.0" y="48.0"/>
    </contour>
  </outline>
</glyph>
<glyph name="uni05D4" format="2">
  <advance width="420"/>
  <unicode hex="05D4"/>
  <outline>
    <contour>
      <point x="62.9736328125" y="80.0" type="curve" smooth="yes"/>
      <point x="110.222755118" y="80.0"/>
      <point x="170.298533893" y="51.9272840349"/>
      <point x="220.602559432" y="51.9272840349" type="curve" smooth="yes"/>
      <point x="233.113192917" y="51.9272840349"/>
      <point x="245.019424792" y="53.6636351596"/>
      <point x="255.973632812" y="58.0" type="curve" smooth="yes"/>
      <point x="274.973632812" y="65.521484375"/>
      <point x="299.973632812" y="100.965820312"/>
      <point x="299.973632812" y="159.0" type="curve" smooth="yes"/>
      <point x="299.973632812" y="191.0"/>
      <point x="333.973632812" y="200.0"/>
      <point x="369.973632812" y="200.0" type="curve" smooth="yes"/>
      <point x="379.973632812" y="200.0"/>
      <point x="390.973632812" y="194.0"/>
      <point x="390.973632812" y="181.0" type="curve" smooth="yes"/>
      <point x="390.973632812" y="94.9765625"/>
      <point x="333.973632812" y="32.40234375"/>
      <point x="266.973632812" y="17.0" type="curve" smooth="yes"/>
      <point x="253.558503241" y="13.916016338"/>
      <point x="241.088373152" y="12.6738219014"/>
      <point x="229.335418775" y="12.6738219014" type="curve" smooth="yes"/>
      <point x="180.637682179" y="12.6738219014"/>
      <point x="144.252524427" y="34.0"/>
      <point x="103.973632812" y="34.0" type="curve" smooth="yes"/>
      <point x="70.0113686615" y="34.0"/>
      <point x="62.6421981382" y="17.0257514909"/>
      <point x="62.6421981382" y="-1.88174009607" type="curve" smooth="yes"/>
      <point x="62.6421981382" y="-16.3774836462"/>
      <point x="66.9736328125" y="-32.0095445165"/>
      <point x="66.9736328125" y="-42.0" type="curve" smooth="yes"/>
      <point x="66.9736328125" y="-53.0"/>
      <point x="66.9736328125" y="-59.0"/>
      <point x="47.9736328125" y="-59.0" type="curve" smooth="yes"/>
      <point x="13.9736328125" y="-59.0"/>
      <point x="-5.703125" y="-24.0"/>
      <point x="-7.0263671875" y="7.0" type="curve" smooth="yes"/>
      <point x="-7.15802400386" y="10.0840394107"/>
      <point x="-7.2431858537" y="13.1913717988"/>
      <point x="-7.2431858537" y="16.2939467369" type="curve" smooth="yes"/>
      <point x="-7.2431858537" y="48.401726912"/>
      <point x="1.87736539871" y="80.0"/>
    </contour>
  </outline>
</glyph>
<glyph name="uni05D5" format="2">
  <advance width="150"/>
  <unicode hex="05D5"/>
  <outline>
    <contour>
      <point x="120.0" y="230.0" type="curve" smooth="yes"/>
      <point x="120.0" y="206.0"/>
      <point x="82.0" y="126.0"/>
      <point x="44.0" y="67.0" type="curve" smooth="yes"/>
      <point x="20.0" y="29.0"/>
      <point x="-4.0" y="0.0"/>
      <point x="-18.0" y="0.0" type="curve" smooth="yes"/>
      <point x="-37.0" y="0.0"/>
      <point x="-37.0" y="6.0"/>
      <point x="-37.0" y="17.0" type="curve" smooth="yes"/>
      <point x="-37.0" y="30.0"/>
      <point x="15.0" y="141.0"/>
      <point x="39.0" y="229.0" type="curve" smooth="yes"/>
      <point x="45.0" y="250.0"/>
      <point x="64.0" y="251.0"/>
      <point x="84.0" y="251.0" type="curve" smooth="yes"/>
      <point x="85.0" y="251.0"/>
      <point x="85.0" y="251.0"/>
      <point x="86.0" y="251.0" type="curve" smooth="yes"/>
      <point x="106.0" y="251.0"/>
      <point x="120.0" y="251.0"/>
    </contour>
  </outline>
</glyph>
<glyph name="uni05D6" format="2">
  <advance width="180"/>
  <unicode hex="05D6"/>
  <outline>
    <contour>
      <point x="-25.0" y="-1.0" type="curve" smooth="yes"/>
      <point x="-35.0" y="-1.0"/>
      <point x="-46.0" y="5.0"/>
      <point x="-46.0" y="18.0" type="curve" smooth="yes"/>
      <point x="-46.0" y="28.1982421875"/>
      <point x="46.0" y="274.0"/>
      <point x="146.0" y="274.0" type="curve" smooth="yes"/>
      <point x="165.0" y="274.0"/>
      <point x="179.0" y="257.0"/>
      <point x="179.0" y="238.0" type="curve" smooth="yes"/>
      <point x="179.0" y="201.0"/>
      <point x="152.0" y="166.0"/>
      <point x="128.0" y="166.0" type="curve" smooth="yes"/>
      <point x="113.0" y="166.0"/>
      <point x="94.1748046875" y="165.885742188"/>
      <point x="85.0" y="152.0" type="curve" smooth="yes"/>
      <point x="17.298828125" y="49.533203125"/>
      <point x="0.0" y="-1.0"/>
    </contour>
  </outline>
</glyph>
<glyph name="uni05D8" format="2">
  <advance width="355"/>
  <unicode hex="05D8"/>
  <outline>
    <contour>
      <point x="89.0" y="140.0" type="curve" smooth="yes"/>
      <point x="86.4929493248" y="133.815941668"/>
      <point x="85.3324767956" y="127.051375115"/>
      <point x="85.3324767956" y="120.151347827" type="curve" smooth="yes"/>
      <point x="85.3324767956" y="90.8011475041"/>
      <point x="106.329386821" y="59.0"/>
      <point x="134.0" y="59.0" type="curve" smooth="yes"/>
      <point x="209.0" y="59.0"/>
      <point x="242.0" y="137.0"/>
      <point x="242.0" y="215.0" type="curve" smooth="yes"/>
      <point x="242.0" y="247.0"/>
      <point x="277.0" y="256.0"/>
      <point x="313.0" y="256.0" type="curve" smooth="yes"/>
      <point x="323.0" y="256.0"/>
      <point x="333.0" y="250.0"/>
      <point x="333.0" y="237.0" type="curve" smooth="yes"/>
      <point x="333.0" y="129.0"/>
      <point x="236.0" y="18.0"/>
      <point x="132.0" y="18.0" type="curve" smooth="yes"/>
      <point x="87.7392578125" y="18.0"/>
      <point x="60.59765625" y="37.3515625"/>
      <point x="46.0" y="66.0" type="curve"/>
      <point x="25.9443359375" y="35.11328125"/>
      <point x="-2.01071711366" y="0.0"/>
      <point x="-18.0" y="0.0" type="curve" smooth="yes"/>
      <point x="-37.0" y="0.0"/>
      <point x="-37.0" y="6.0"/>
      <point x="-37.0" y="17.0" type="curve" smooth="yes"/>
      <point x="-37.0" y="30.0"/>
      <point x="13.0" y="134.0"/>
      <point x="37.0" y="222.0" type="curve" smooth="yes"/>
      <point x="43.0" y="243.0"/>
      <point x="62.0" y="244.0"/>
      <point x="82.0" y="244.0" type="curve" smooth="yes"/>
      <point x="83.0" y="244.0"/>
      <point x="83.0" y="244.0"/>
      <point x="84.0" y="244.0" type="curve" smooth="yes"/>
      <point x="104.0" y="244.0"/>
      <point x="118.0" y="244.0"/>
      <point x="118.0" y="223.0" type="curve" smooth="yes"/>
      <point x="118.0" y="214.0"/>
      <point x="104.0" y="177.0"/>
    </contour>
  </outline>
</glyph>
<glyph name="uni05DA" format="2">
  <advance width="273"/>
  <unicode hex="05DA"/>
  <outline>
    <contour>
      <point x="227.0" y="140.0" type="curve" smooth="yes"/>
      <point x="123.283272197" y="-122.0"/>
      <point x="166.0" y="-234.38986903"/>
      <point x="26.0" y="-361.0" type="curve" smooth="yes"/>
      <point x="18.1583460611" y="-368.091663087"/>
      <point x="10.0414527858" y="-371.057671951"/>
      <point x="3.18353703362" y="-371.057671951" type="curve" smooth="yes"/>
      <point x="-6.74191477702" y="-371.057671951"/>
      <point x="-14.0302200934" y="-364.844852633"/>
      <point x="-14.0302200934" y="-355.934815274" type="curve" smooth="yes"/>
      <point x="-14.0302200934" y="-350.374758783"/>
      <point x="-11.1921317121" y="-343.764397337"/>
      <point x="-4.3857421875" y="-336.958007812" type="curve" smooth="yes"/>
      <point x="75.6767578125" y="-256.895507812"/>
      <point x="52.8489672517" y="-101.0"/>
      <point x="159.0" y="143.0" type="curve" smooth="yes"/>
      <point x="164.219198603" y="154.996910686"/>
      <point x="166.528763457" y="164.888818275"/>
      <point x="166.528763457" y="173.006778678" type="curve" smooth="yes"/>
      <point x="166.528763457" y="199.886278089"/>
      <point x="141.207891469" y="207.317140003"/>
      <point x="112.349456829" y="207.317140003" type="curve" smooth="yes"/>
      <point x="78.0010962995" y="207.317140003"/>
      <point x="38.6412024133" y="196.790114471"/>
      <point x="31.0" y="196.0" type="curve" smooth="yes"/>
      <point x="23.7327059939" y="195.24854835"/>
      <point x="17.0528377901" y="194.897466237"/>
      <point x="10.9266761507" y="194.897466237" type="curve" smooth="yes"/>
      <point x="-32.2126638825" y="194.897466237"/>
      <point x="-47.8952138744" y="212.306665392"/>
      <point x="-47.8952138744" y="229.914651848" type="curve" smooth="yes"/>
      <point x="-47.8952138744" y="245.245805292"/>
      <point x="-36.0061694353" y="260.727660698"/>
      <point x="-20.0" y="265.0" type="curve" smooth="yes"/>
      <point x="-13.9504035994" y="266.614747899"/>
      <point x="-9.0329166953" y="267.30161338"/>
      <point x="-4.87811497422" y="267.30161338" type="curve" smooth="yes"/>
      <point x="18.8031244273" y="267.30161338"/>
      <point x="17.7070877447" y="244.987484243"/>
      <point x="60.2387756144" y="244.987484243" type="curve" smooth="yes"/>
      <point x="60.8177094815" y="244.987484243"/>
      <point x="61.4047267704" y="244.991618644"/>
      <point x="62.0" y="245.0" type="curve" smooth="yes"/>
      <point x="89.4133832289" y="245.385976237"/>
      <point x="131.763983982" y="254.223416219"/>
      <point x="168.431317582" y="254.223416219" type="curve" smooth="yes"/>
      <point x="208.254366537" y="254.223416219"/>
      <point x="241.373810323" y="243.799357883"/>
      <point x="241.373810323" y="200.803318994" type="curve" smooth="yes"/>
      <point x="241.373810323" y="185.186421042"/>
      <point x="237.004471885" y="165.272409662"/>
    </contour>
  </outline>
</glyph>
<glyph name="uni05DB" format="2">
  <advance width="289"/>
  <unicode hex="05DB"/>
  <outline>
    <contour>
      <point x="52.0" y="157.0" type="curve" smooth="yes"/>
      <point x="49.4930891678" y="156.582158688"/>
      <point x="47.0879501922" y="156.380053711"/>
      <point x="44.793119202" y="156.380053711" type="curve" smooth="yes"/>
      <point x="30.7349742832" y="156.380053711"/>
      <point x="20.8164598137" y="163.964635308"/>
      <point x="17.0" y="176.0" type="curve" smooth="yes"/>
      <point x="16.2313397614" y="178.424166097"/>
      <point x="15.8407304383" y="181.046594143"/>
      <point x="15.8407304383" y="183.80933626" type="curve" smooth="yes"/>
      <point x="15.8407304383" y="210.740224751"/>
      <point x="52.9387204433" y="250.872239661"/>
      <point x="138.450826946" y="250.925922038" type="curve" smooth="yes"/>
      <point x="194.91839539" y="250.925922038"/>
      <point x="259.553703282" y="224.154179266"/>
      <point x="259.553703282" y="159.363344642" type="curve" smooth="yes"/>
      <point x="259.553703282" y="155.180424981"/>
      <point x="259.390821486" y="151.133648277"/>
      <point x="259.0" y="147.0" type="curve" smooth="yes"/>
      <point x="250.017578125" y="52.0"/>
      <point x="165.0" y="0.0"/>
      <point x="75.0" y="0.0" type="curve" smooth="yes"/>
      <point x="-13.0457757445" y="0.0"/>
      <point x="-53.9510006507" y="46.5801163005"/>
      <point x="-53.9510006507" y="67.9538667077" type="curve" smooth="yes"/>
      <point x="-53.9510006507" y="74.317700016"/>
      <point x="-50.3247743085" y="78.4470024495"/>
      <point x="-43.2369002173" y="78.4470024495" type="curve" smooth="yes"/>
      <point x="-40.8739633474" y="78.4470024495"/>
      <point x="-38.1262973016" y="77.9880698148"/>
      <point x="-35.0" y="77.0" type="curve" smooth="yes"/>
      <point x="-21.8808980807" y="72.853609738"/>
      <point x="14.0692329939" y="45.6163570187"/>
      <point x="65.4446146915" y="45.6163570187" type="curve" smooth="yes"/>
      <point x="68.8942772834" y="45.6163570187"/>
      <point x="72.4134863859" y="45.7391592946"/>
      <point x="76.0" y="46.0" type="curve" smooth="yes"/>
      <point x="131.0" y="50.0"/>
      <point x="177.672851562" y="93.0"/>
      <point x="182.0" y="147.0" type="curve" smooth="yes"/>
      <point x="182.202148438" y="149.522460938"/>
      <point x="182.299804688" y="151.952148438"/>
      <point x="182.299804688" y="154.290039062" type="curve" smooth="yes"/>
      <point x="182.299804688" y="188.934802971"/>
      <point x="160.181978217" y="213.616648574"/>
      <point x="131.833397494" y="213.616648574" type="curve" smooth="yes"/>
      <point x="129.269319503" y="213.616648574"/>
      <point x="126.654268482" y="213.41472945"/>
      <point x="124.0" y="213.0" type="curve" smooth="yes"/>
      <point x="90.0" y="207.6875"/>
      <point x="106.0" y="166.0"/>
    </contour>
  </outline>
</glyph>
<glyph name="uni05DC" format="2">
  <advance width="300"/>
  <unicode hex="05DC"/>
  <outline>
    <contour>
      <point x="267.0" y="567.0" type="curve" smooth="yes"/>
      <point x="266.746965966" y="575.008906626"/>
      <point x="263.0" y="583.0"/>
      <point x="251.0" y="583.0" type="curve" smooth="yes"/>
      <point x="193.0" y="583.0"/>
      <point x="46.0" y="285.0"/>
      <point x="46.0" y="106.0" type="curve" smooth="yes"/>
      <point x="46.0" y="73.9843788128"/>
      <point x="63.0" y="43.0"/>
      <point x="89.0" y="43.0" type="curve" smooth="yes"/>
      <point x="145.0" y="43.0"/>
      <point x="165.0" y="87.0"/>
      <point x="186.0" y="133.0" type="curve" smooth="yes"/>
      <point x="194.0" y="153.0"/>
      <point x="219.0" y="153.0"/>
      <point x="234.0" y="153.0" type="curve" smooth="yes"/>
      <point x="254.0" y="153.0"/>
      <point x="262.0" y="149.0"/>
      <point x="262.0" y="133.0" type="curve" smooth="yes"/>
      <point x="262.0" y="75.0"/>
      <point x="188.0" y="0.0"/>
      <point x="88.0" y="0.0" type="curve" smooth="yes"/>
      <point x="9.0" y="0.0"/>
      <point x="0.0" y="93.0"/>
      <point x="0.0" y="124.0" type="curve" smooth="yes"/>
      <point x="0.0" y="310.0"/>
      <point x="147.0" y="624.025"/>
      <point x="266.0" y="629.0" type="curve" smooth="yes"/>
      <point x="270.282856294" y="629.179052185"/>
      <point x="274.554750145" y="629.308581723"/>
      <point x="278.768875412" y="629.308581723" type="curve" smooth="yes"/>
      <point x="313.890769196" y="629.308581723"/>
      <point x="345.0" y="620.311331788"/>
      <point x="345.0" y="556.0" type="curve" smooth="yes"/>
      <point x="345.0" y="415.0"/>
      <point x="160.0" y="108.0"/>
      <point x="100.0" y="108.0" type="curve" smooth="yes"/>
      <point x="89.0" y="108.0"/>
      <point x="87.0" y="111.0"/>
      <point x="87.0" y="122.0" type="curve" smooth="yes"/>
      <point x="87.0" y="137.809097322"/>
      <point x="267.079410408" y="419.166225175"/>
      <point x="267.079410408" y="561.890941952" type="curve" smooth="yes"/>
      <point x="267.079410408" y="563.614413574"/>
      <point x="267.053151663" y="565.317670153"/>
    </contour>
  </outline>
</glyph>
<glyph name="uni05DE" format="2">
  <advance width="406"/>
  <unicode hex="05DE"/>
  <outline>
    <contour>
      <point x="120.0" y="230.0" type="curve" smooth="yes"/>
      <point x="120.0" y="214.802073488"/>
      <point x="97.6068118779" y="168.821266978"/>
      <point x="82.0" y="122.0" type="curve" smooth="yes"/>
      <point x="78.6535999403" y="111.960354169"/>
      <point x="77.1467009211" y="102.28515122"/>
      <point x="77.1467009211" y="93.3307753197" type="curve" smooth="yes"/>
      <point x="77.1467009211" y="63.0414820482"/>
      <point x="94.3888655289" y="41.0"/>
      <point x="116.0" y="41.0" type="curve" smooth="yes"/>
      <point x="252.0" y="41.0"/>
      <point x="244.0" y="273.0"/>
      <point x="380.0" y="273.0" type="curve" smooth="yes"/>
      <point x="399.0" y="273.0"/>
      <point x="406.0" y="258.0"/>
      <point x="406.0" y="239.0" type="curve" smooth="yes"/>
      <point x="406.0" y="202.0"/>
      <point x="379.0" y="167.0"/>
      <point x="355.0" y="167.0" type="curve" smooth="yes"/>
      <point x="340.0" y="167.0"/>
      <point x="321.174804688" y="166.885742188"/>
      <point x="312.0" y="153.0" type="curve" smooth="yes"/>
      <point x="258.3671875" y="71.8291015625"/>
      <point x="217.0" y="0.0"/>
      <point x="114.0" y="0.0" type="curve" smooth="yes"/>
      <point x="69.7392578125" y="0.0"/>
      <point x="50.763671875" y="26.2744140625"/>
      <point x="36.166015625" y="54.9228515625" type="curve"/>
      <point x="14.8876953125" y="23.0234375"/>
      <point x="-5.525390625" y="0.0"/>
      <point x="-18.0" y="0.0" type="curve" smooth="yes"/>
      <point x="-37.0" y="0.0"/>
      <point x="-37.0" y="6.0"/>
      <point x="-37.0" y="17.0" type="curve" smooth="yes"/>
      <point x="-37.0" y="30.0"/>
      <point x="15.0" y="141.0"/>
      <point x="39.0" y="229.0" type="curve" smooth="yes"/>
      <point x="45.0" y="250.0"/>
      <point x="64.0" y="251.0"/>
      <point x="84.0" y="251.0" type="curve" smooth="yes"/>
      <point x="85.0" y="251.0"/>
      <point x="85.0" y="251.0"/>
      <point x="86.0" y="251.0" type="curve" smooth="yes"/>
      <point x="106.0" y="251.0"/>
      <point x="120.0" y="251.0"/>
    </contour>
  </outline>
</glyph>
<glyph name="uni05E1" format="2">
  <advance width="340"/>
  <unicode hex="05E1"/>
  <outline>
    <contour>
      <point x="196.0" y="251.0" type="curve"/>
      <point x="276.576171875" y="251.0"/>
      <point x="305.549804688" y="206.034179688"/>
      <point x="305.549804688" y="158.490234375" type="curve" smooth="yes"/>
      <point x="305.549804688" y="154.669921875"/>
      <point x="305.362304688" y="150.83203125"/>
      <point x="305.0" y="147.0" type="curve" smooth="yes"/>
      <point x="296.013671875" y="52.0"/>
      <point x="200.0" y="0.0"/>
      <point x="121.0" y="0.0" type="curve" smooth="yes"/>
      <point x="76.7392578125" y="0.0"/>
      <point x="50.763671875" y="26.2744140625"/>
      <point x="36.166015625" y="54.9228515625" type="curve"/>
      <point x="14.8876953125" y="23.0234375"/>
      <point x="-5.525390625" y="0.0"/>
      <point x="-18.0" y="0.0" type="curve" smooth="yes"/>
      <point x="-37.0" y="0.0"/>
      <point x="-37.0" y="6.0"/>
      <point x="-37.0" y="17.0" type="curve" smooth="yes"/>
      <point x="-37.0" y="30.0"/>
      <point x="15.0" y="141.0"/>
      <point x="39.0" y="229.0" type="curve" smooth="yes"/>
      <point x="45.0" y="250.0"/>
      <point x="64.0" y="251.0"/>
      <point x="84.0" y="251.0" type="curve" smooth="yes"/>
      <point x="85.0" y="251.0"/>
      <point x="85.0" y="251.0"/>
      <point x="86.0" y="251.0" type="curve" smooth="yes"/>
      <point x="106.0" y="251.0"/>
      <point x="120.0" y="251.0"/>
      <point x="120.0" y="230.0" type="curve" smooth="yes"/>
      <point x="120.0" y="229.721679688"/>
      <point x="119.995117188" y="229.436523438"/>
      <point x="119.984375" y="229.142578125" type="curve"/>
      <point x="142.620117188" y="242.1484375"/>
      <point x="168.255859375" y="251.0"/>
    </contour>
    <contour>
      <point x="82.0" y="122.0" type="curve" smooth="yes"/>
      <point x="79.7831375686" y="114.965592871"/>
      <point x="78.5498046875" y="107.455078125"/>
      <point x="78.5498046875" y="99.8798828125" type="curve" smooth="yes"/>
      <point x="78.5498046875" y="70.6455078125"/>
      <point x="95.203125" y="41.0"/>
      <point x="123.0" y="41.0" type="curve" smooth="yes"/>
      <point x="181.0" y="41.0"/>
      <point x="223.999023438" y="97.0"/>
      <point x="228.0" y="147.0" type="curve" smooth="yes"/>
      <point x="228.202148438" y="149.522460938"/>
      <point x="228.299804688" y="151.952148438"/>
      <point x="228.299804688" y="154.290039062" type="curve" smooth="yes"/>
      <point x="228.299804688" y="192.068359375"/>
      <point x="202.789800388" y="204.490619718"/>
      <point x="180.7734375" y="206.07421875" type="curve" smooth="yes"/>
      <point x="176.39061983" y="206.38946727"/>
      <point x="172.235135533" y="206.544340008"/>
      <point x="168.291496787" y="206.544340008" type="curve" smooth="yes"/>
      <point x="109.687042637" y="206.544340008"/>
      <point x="97.8654032019" y="172.343090223"/>
    </contour>
  </outline>
</glyph>
<glyph name="uni05E6" format="2">
  <advance width="231"/>
  <unicode hex="05E6"/>
  <outline>
    <contour>
      <point x="63.0" y="589.0" type="curve" smooth="yes"/>
      <point x="67.6860387882" y="589.323175089"/>
      <point x="72.2794062305" y="589.481237593"/>
      <point x="76.7805138516" y="589.481237593" type="curve" smooth="yes"/>
      <point x="193.306906405" y="589.481237593"/>
      <point x="248.0" y="483.546433329"/>
      <point x="248.0" y="394.0" type="curve" smooth="yes"/>
      <point x="248.0" y="368.712835033"/>
      <point x="246.092198991" y="344.351348661"/>
      <point x="242.563257067" y="321.004297939" type="curve"/>
      <point x="316.286026498" y="353.248309537"/>
      <point x="396.929506995" y="408.936878619"/>
      <point x="478.140625" y="494.68359375" type="curve" smooth="yes"/>
      <point x="496.639132368" y="514.21532305"/>
      <point x="510.796052723" y="521.256352579"/>
      <point x="520.355296226" y="521.256352579" type="curve" smooth="yes"/>
      <point x="530.020661887" y="521.256352579"/>
      <point x="534.985701635" y="514.058122991"/>
      <point x="534.985701635" y="505.294855336" type="curve" smooth="yes"/>
      <point x="534.985701635" y="499.32947866"/>
      <point x="532.684968112" y="492.638884116"/>
      <point x="528.0" y="487.0" type="curve" smooth="yes"/>
      <point x="421.878821157" y="359.271269422"/>
      <point x="318.683455581" y="286.53965575"/>
      <point x="226.798425458" y="252.142289609" type="curve"/>
      <point x="178.331672221" y="95.944960113"/>
      <point x="57.6397232648" y="3.31609739668e-14"/>
      <point x="-20.0" y="0.0" type="curve" smooth="yes"/>
      <point x="-28.0" y="0.0"/>
      <point x="-33.0" y="4.267578125"/>
      <point x="-33.0" y="13.0" type="curve" smooth="yes"/>
      <point x="-33.0" y="23.0"/>
      <point x="-20.9998109741" y="28.1951137804"/>
      <point x="-17.0" y="32.0" type="curve" smooth="yes"/>
      <point x="2.50000570786" y="50.5497023439"/>
      <point x="96.2500548833" y="91.7762764009"/>
      <point x="141.906290092" y="230.291742663" type="curve"/>
      <point x="126.657339785" y="228.205546554"/>
      <point x="111.87289023" y="227.212757423"/>
      <point x="97.603570916" y="227.212757423" type="curve" smooth="yes"/>
      <point x="-37.3277803287" y="227.212757423"/>
      <point x="-126.19782294" y="315.98480555"/>
      <point x="-126.19782294" y="408.453529984" type="curve" smooth="yes"/>
      <point x="-126.19782294" y="410.966858436"/>
      <point x="-126.132168493" y="413.482917878"/>
      <point x="-126.0" y="416.0" type="curve" smooth="yes"/>
      <point x="-120.644121393" y="518.0"/>
      <point x="-53.0" y="581.0"/>
    </contour>
    <contour>
      <point x="157.688325654" y="293.112143663" type="curve"/>
      <point x="163.58955391" y="325.760982252"/>
      <point x="167.0" y="362.536647132"/>
      <point x="167.0" y="404.0" type="curve" smooth="yes"/>
      <point x="167.0" y="490.005859375"/>
      <point x="120.0" y="548.0"/>
      <point x="53.0" y="548.0" type="curve" smooth="yes"/>
      <point x="-26.404296875" y="548.0"/>
      <point x="-76.3535447761" y="487.0"/>
      <point x="-81.0" y="423.0" type="curve" smooth="yes"/>
      <point x="-81.2265846214" y="419.879036799"/>
      <point x="-81.338774801" y="416.790322368"/>
      <point x="-81.338774801" y="413.736151359" type="curve" smooth="yes"/>
      <point x="-81.338774801" y="339.17543809"/>
      <point x="-14.4754065904" y="285.20199454"/>
      <point x="87.180265566" y="285.20199454" type="curve" smooth="yes"/>
      <point x="109.163945972" y="285.20199454"/>
      <point x="132.774750785" y="287.726159294"/>
    </contour>
  </outline>
</glyph>
<glyph name="uni05E7" format="2">
  <advance width="170"/>
  <unicode hex="05E7"/>
  <outline>
    <contour>
      <point x="49.0" y="179.0" type="curve" smooth="yes"/>
      <point x="49.0" y="211.0"/>
      <point x="83.0" y="220.0"/>
      <point x="119.0" y="220.0" type="curve" smooth="yes"/>
      <point x="129.0" y="220.0"/>
      <point x="140.0" y="214.0"/>
      <point x="140.0" y="201.0" type="curve" smooth="yes"/>
      <point x="140.0" y="101.0"/>
      <point x="95.8203125" y="21.7978515625"/>
      <point x="1.0" y="0.0" type="curve" smooth="yes"/>
      <point x="-86.0" y="-20.0"/>
      <point x="-194.0" y="-371.0"/>
      <point x="-285.0" y="-371.0" type="curve" smooth="yes"/>
      <point x="-304.0" y="-371.0"/>
      <point x="-318.0" y="-354.0"/>
      <point x="-318.0" y="-335.0" type="curve" smooth="yes"/>
      <point x="-318.0" y="-298.0"/>
      <point x="-291.0" y="-263.0"/>
      <point x="-267.0" y="-263.0" type="curve" smooth="yes"/>
      <point x="-252.0" y="-263.0"/>
      <point x="-250.0" y="-263.0"/>
      <point x="-241.0" y="-249.0" type="curve" smooth="yes"/>
      <point x="-167.0" y="-137.0"/>
      <point x="-98.8935546875" y="4.7294921875"/>
      <point x="-30.0" y="32.0" type="curve" smooth="yes"/>
      <point x="18.0" y="51.0"/>
      <point x="49.0" y="84.0"/>
    </contour>
  </outline>
</glyph>
<glyph name="uni05EA" format="2">
  <advance width="363"/>
  <unicode hex="05EA"/>
  <outline>
    <contour>
      <point x="89.0" y="91.0" type="curve" smooth="yes"/>
      <point x="95.462890625" y="67.671875"/>
      <point x="110.0" y="59.0"/>
      <point x="134.0" y="59.0" type="curve" smooth="yes"/>
      <point x="209.0" y="59.0"/>
      <point x="242.0" y="137.0"/>
      <point x="242.0" y="215.0" type="curve" smooth="yes"/>
      <point x="242.0" y="247.0"/>
      <point x="277.0" y="256.0"/>
      <point x="313.0" y="256.0" type="curve" smooth="yes"/>
      <point x="323.0" y="256.0"/>
      <point x="333.0" y="250.0"/>
      <point x="333.0" y="237.0" type="curve" smooth="yes"/>
      <point x="333.0" y="129.0"/>
      <point x="236.0" y="18.0"/>
      <point x="132.0" y="18.0" type="curve" smooth="yes"/>
      <point x="107.276912449" y="18.0"/>
      <point x="84.837890625" y="24.6767578125"/>
      <point x="74.0" y="36.0" type="curve"/>
      <point x="22.0478515625" y="-128.162109375"/>
      <point x="-167.069457445" y="-372.0"/>
      <point x="-452.0" y="-372.0" type="curve" smooth="yes"/>
      <point x="-564.042316481" y="-372.0"/>
      <point x="-633.169653415" y="-300.329208154"/>
      <point x="-633.169653415" y="-214.121679162" type="curve" smooth="yes"/>
      <point x="-633.169653415" y="-157.986623991"/>
      <point x="-603.858848813" y="-95.6878211496"/>
      <point x="-538.0" y="-43.0" type="curve" smooth="yes"/>
      <point x="-518.73638451" y="-27.5888905448"/>
      <point x="-500.570651981" y="-20.8354689095"/>
      <point x="-488.281746563" y="-20.8354689095" type="curve" smooth="yes"/>
      <point x="-478.560159586" y="-20.8354689095"/>
      <point x="-472.516395767" y="-25.0618805471"/>
      <point x="-472.516395767" y="-32.5719472938" type="curve" smooth="yes"/>
      <point x="-472.516395767" y="-41.1947917965"/>
      <point x="-480.48387609" y="-54.1464714846"/>
      <point x="-500.0" y="-70.0" type="curve" smooth="yes"/>
      <point x="-546.01460519" y="-107.379033812"/>
      <point x="-568.683359888" y="-158.108349346"/>
      <point x="-568.683359888" y="-204.254826462" type="curve" smooth="yes"/>
      <point x="-568.683359888" y="-267.420729293"/>
      <point x="-526.210062868" y="-322.0"/>
      <point x="-443.0" y="-322.0" type="curve" smooth="yes"/>
      <point x="-232.0" y="-322.0"/>
      <point x="-43.0126953125" y="-104.0"/>
      <point x="6.0" y="91.0" type="curve" smooth="yes"/>
      <point x="9.70439554118" y="105.738163774"/>
      <point x="29.1989771958" y="113.820756751"/>
      <point x="48.4727245885" y="113.820756751" type="curve" smooth="yes"/>
      <point x="66.6718946271" y="113.820756751"/>
      <point x="84.674168484" y="106.614303906"/>
    </contour>
  </outline>
</glyph>
<glyph name="uni05F4" format="2">
  <advance width="210"/>
  <unicode hex="05F4"/>
  <outline>
    <contour>
      <point x="224.762695312" y="507.690429688" type="curve" smooth="yes"/>
      <point x="228.212890625" y="512.909179688"/>
      <point x="235.333984375" y="518.750976562"/>
      <point x="247.483398438" y="518.750976562" type="curve" smooth="yes"/>
      <point x="254.486328125" y="518.750976562"/>
      <point x="263.159179688" y="516.809570312"/>
      <point x="273.762695312" y="511.690429688" type="curve" smooth="yes"/>
      <point x="287.438476562" y="505.088867188"/>
      <point x="292.290039062" y="496.458007812"/>
      <point x="292.290039062" y="488.755859375" type="curve" smooth="yes"/>
      <point x="292.290039062" y="484.655273438"/>
      <point x="290.915039062" y="480.818359375"/>
      <point x="288.762695312" y="477.690429688" type="curve" smooth="yes"/>
      <point x="261.23828125" y="437.69140625"/>
      <point x="200.025390625" y="371.640625"/>
      <point x="168.762695312" y="364.690429688" type="curve" smooth="yes"/>
      <point x="165.475585938" y="363.959960938"/>
      <point x="162.353515625" y="363.622070312"/>
      <point x="159.440429688" y="363.622070312" type="curve" smooth="yes"/>
      <point x="145.978515625" y="363.622070312"/>
      <point x="137.0" y="370.850585938"/>
      <point x="137.0" y="380.0" type="curve" smooth="yes"/>
      <point x="137.0" y="381.518554688"/>
      <point x="137.247070312" y="383.090820312"/>
      <point x="137.762695312" y="384.690429688" type="curve" smooth="yes"/>
      <point x="142.59375" y="399.690429688"/>
      <point x="174.520507812" y="431.69140625"/>
    </contour>
    <contour>
      <point x="87.7626953125" y="506.690429688" type="curve" smooth="yes"/>
      <point x="91.212890625" y="511.909179688"/>
      <point x="98.333984375" y="517.750976562"/>
      <point x="110.483398438" y="517.750976562" type="curve" smooth="yes"/>
      <point x="117.486328125" y="517.750976562"/>
      <point x="126.159179688" y="515.809570312"/>
      <point x="136.762695312" y="510.690429688" type="curve" smooth="yes"/>
      <point x="150.438476562" y="504.088867188"/>
      <point x="155.290039062" y="495.458007812"/>
      <point x="155.290039062" y="487.755859375" type="curve" smooth="yes"/>
      <point x="155.290039062" y="483.655273438"/>
      <point x="153.915039062" y="479.818359375"/>
      <point x="151.762695312" y="476.690429688" type="curve" smooth="yes"/>
      <point x="124.23828125" y="436.69140625"/>
      <point x="63.025390625" y="370.640625"/>
      <point x="31.7626953125" y="363.690429688" type="curve" smooth="yes"/>
      <point x="28.4755859375" y="362.959960938"/>
      <point x="25.353515625" y="362.622070312"/>
      <point x="22.4404296875" y="362.622070312" type="curve" smooth="yes"/>
      <point x="8.978515625" y="362.622070312"/>
      <point x="0.0" y="369.850585938"/>
      <point x="0.0" y="379.0" type="curve" smooth="yes"/>
      <point x="0.0" y="380.518554688"/>
      <point x="0.2470703125" y="382.090820312"/>
      <point x="0.7626953125" y="383.690429688" type="curve" smooth="yes"/>
      <point x="5.59375" y="398.690429688"/>
      <point x="37.5205078125" y="430.69140625"/>
    </contour>
  </outline>
</glyph>
<glyph name="quotedblbase" format="2">
  <advance width="210"/>
  <unicode hex="201E"/>
  <outline>
    <contour>
      <point x="142.762695312" y="66.6904296875" type="curve" smooth="yes"/>
      <point x="146.212890625" y="71.9091796875"/>
      <point x="153.333984375" y="77.7509765625"/>
      <point x="165.483398438" y="77.7509765625" type="curve" smooth="yes"/>
      <point x="172.486328125" y="77.7509765625"/>
      <point x="181.159179688" y="75.8095703125"/>
      <point x="191.762695312" y="70.6904296875" type="curve" smooth="yes"/>
      <point x="205.438476562" y="64.0888671875"/>
      <point x="210.290039062" y="55.4580078125"/>
      <point x="210.290039062" y="47.755859375" type="curve" smooth="yes"/>
      <point x="210.290039062" y="43.6552734375"/>
      <point x="208.915039062" y="39.818359375"/>
      <point x="206.762695312" y="36.6904296875" type="curve" smooth="yes"/>
      <point x="179.23828125" y="-3.30859375"/>
      <point x="118.025390625" y="-69.359375"/>
      <point x="86.7626953125" y="-76.3095703125" type="curve" smooth="yes"/>
      <point x="83.4755859375" y="-77.0400390625"/>
      <point x="80.353515625" y="-77.3779296875"/>
      <point x="77.4404296875" y="-77.3779296875" type="curve" smooth="yes"/>
      <point x="63.978515625" y="-77.3779296875"/>
      <point x="55.0" y="-70.1494140625"/>
      <point x="55.0" y="-61.0" type="curve" smooth="yes"/>
      <point x="55.0" y="-59.4814453125"/>
      <point x="55.2470703125" y="-57.9091796875"/>
      <point x="55.7626953125" y="-56.3095703125" type="curve" smooth="yes"/>
      <point x="60.59375" y="-41.3095703125"/>
      <point x="92.5205078125" y="-9.30859375"/>
    </contour>
    <contour>
      <point x="5.7626953125" y="65.6904296875" type="curve" smooth="yes"/>
      <point x="9.212890625" y="70.9091796875"/>
      <point x="16.333984375" y="76.7509765625"/>
      <point x="28.4833984375" y="76.7509765625" type="curve" smooth="yes"/>
      <point x="35.486328125" y="76.7509765625"/>
      <point x="44.1591796875" y="74.8095703125"/>
      <point x="54.7626953125" y="69.6904296875" type="curve" smooth="yes"/>
      <point x="68.4384765625" y="63.0888671875"/>
      <point x="73.2900390625" y="54.4580078125"/>
      <point x="73.2900390625" y="46.755859375" type="curve" smooth="yes"/>
      <point x="73.2900390625" y="42.6552734375"/>
      <point x="71.9150390625" y="38.818359375"/>
      <point x="69.7626953125" y="35.6904296875" type="curve" smooth="yes"/>
      <point x="42.23828125" y="-4.30859375"/>
      <point x="-18.974609375" y="-70.359375"/>
      <point x="-50.2373046875" y="-77.3095703125" type="curve" smooth="yes"/>
      <point x="-53.5244140625" y="-78.0400390625"/>
      <point x="-56.646484375" y="-78.3779296875"/>
      <point x="-59.5595703125" y="-78.3779296875" type="curve" smooth="yes"/>
      <point x="-73.021484375" y="-78.3779296875"/>
      <point x="-82.0" y="-71.1494140625"/>
      <point x="-82.0" y="-62.0" type="curve" smooth="yes"/>
      <point x="-82.0" y="-60.4814453125"/>
      <point x="-81.7529296875" y="-58.9091796875"/>
      <point x="-81.2373046875" y="-57.3095703125" type="curve" smooth="yes"/>
      <point x="-76.40625" y="-42.3095703125"/>
      <point x="-44.4794921875" y="-10.30859375"/>
    </contour>
  </outline>
</glyph>
<glyph name="uniFB4F" format="2">
  <advance width="317"/>
  <unicode hex="FB4F"/>
  <outline>
    <contour>
      <point x="201.698242188" y="258.423828125" type="curve"/>
      <point x="107.124023438" y="130.788085938"/>
      <point x="-9.560546875" y="18.5498046875"/>
      <point x="-39.2333984375" y="7.748046875" type="curve" smooth="yes"/>
      <point x="-41.66796875" y="6.8623046875"/>
      <point x="-44.2294921875" y="6.3134765625"/>
      <point x="-46.6064453125" y="6.3134765625" type="curve" smooth="yes"/>
      <point x="-51.9111328125" y="6.3134765625"/>
      <point x="-56.296875" y="9.0439453125"/>
      <point x="-56.296875" y="16.8505859375" type="curve" smooth="yes"/>
      <point x="-56.296875" y="23.0458984375"/>
      <point x="-32.783203125" y="47.1279296875"/>
      <point x="12.0" y="105.0" type="curve" smooth="yes"/>
      <point x="63.4443359375" y="171.48046875"/>
      <point x="133.336914062" y="262.2890625"/>
      <point x="187.225585938" y="349.119140625" type="curve"/>
      <point x="179.520507812" y="401.073242188"/>
      <point x="173.524414062" y="452.436523438"/>
      <point x="173.524414062" y="496.107421875" type="curve" smooth="yes"/>
      <point x="173.524414062" y="574.397460938"/>
      <point x="185.216796875" y="624.404296875"/>
      <point x="251.76171875" y="628.404296875" type="curve" smooth="yes"/>
      <point x="254.095703125" y="628.544921875"/>
      <point x="256.422851562" y="628.618164062"/>
      <point x="258.737304688" y="628.618164062" type="curve" smooth="yes"/>
      <point x="296.724609375" y="628.618164062"/>
      <point x="331.14453125" y="608.697265625"/>
      <point x="331.14453125" y="535.33203125" type="curve" smooth="yes"/>
      <point x="331.14453125" y="475.409179688"/>
      <point x="295.48828125" y="398.6328125"/>
      <point x="246.092773438" y="322.282226562" type="curve"/>
      <point x="247.368164062" y="313.549804688"/>
      <point x="248.671875" y="304.779296875"/>
      <point x="250.0" y="296.0" type="curve" smooth="yes"/>
      <point x="256.837890625" y="250.788085938"/>
      <point x="271.483398438" y="180.077148438"/>
      <point x="271.483398438" y="119.08203125" type="curve" smooth="yes"/>
      <point x="271.483398438" y="56.173828125"/>
      <point x="255.904296875" y="3.6005859375"/>
      <point x="200.111328125" y="-0.001953125" type="curve" smooth="yes"/>
      <point x="197.399414062" y="-0.1767578125"/>
      <point x="194.65625" y="-0.267578125"/>
      <point x="191.891601562" y="-0.267578125" type="curve" smooth="yes"/>
      <point x="163.087890625" y="-0.267578125"/>
      <point x="131.999023438" y="9.587890625"/>
      <point x="109.879882812" y="36.55078125" type="curve" smooth="yes"/>
      <point x="105.532226562" y="41.849609375"/>
      <point x="103.3515625" y="47.0556640625"/>
      <point x="103.3515625" y="52.2216796875" type="curve" smooth="yes"/>
      <point x="103.3515625" y="59.2685546875"/>
      <point x="107.411132812" y="66.2412109375"/>
      <point x="115.568359375" y="73.2744140625" type="curve" smooth="yes"/>
      <point x="125.196289062" y="81.576171875"/>
      <point x="135.284179688" y="86.533203125"/>
      <point x="144.565429688" y="86.533203125" type="curve" smooth="yes"/>
      <point x="150.966796875" y="86.533203125"/>
      <point x="156.984375" y="84.1748046875"/>
      <point x="162.203125" y="78.9287109375" type="curve" smooth="yes"/>
      <point x="173.888671875" y="67.1826171875"/>
      <point x="186.267578125" y="60.7578125"/>
      <point x="196.575195312" y="60.7578125" type="curve" smooth="yes"/>
      <point x="209.061523438" y="60.7578125"/>
      <point x="218.5078125" y="70.1845703125"/>
      <point x="220.0" y="91.0" type="curve" smooth="yes"/>
      <point x="220.30078125" y="95.1943359375"/>
      <point x="220.443359375" y="99.7041015625"/>
      <point x="220.443359375" y="104.50390625" type="curve" smooth="yes"/>
      <point x="220.443359375" y="142.174804688"/>
      <point x="211.662109375" y="197.676757812"/>
    </contour>
    <contour>
      <point x="231.953125" y="428.388671875" type="curve"/>
      <point x="254.4453125" y="473.650390625"/>
      <point x="268.703125" y="514.969726562"/>
      <point x="268.844726562" y="547.512695312" type="curve" smooth="yes"/>
      <point x="268.846679688" y="547.84765625"/>
      <point x="268.84765625" y="548.180664062"/>
      <point x="268.84765625" y="548.51171875" type="curve" smooth="yes"/>
      <point x="268.84765625" y="581.602539062"/>
      <point x="261.546875" y="594.44921875"/>
      <point x="249.21484375" y="594.44921875" type="curve" smooth="yes"/>
      <point x="247.868164062" y="594.44921875"/>
      <point x="246.462890625" y="594.296875"/>
      <point x="245.0" y="594.0" type="curve" smooth="yes"/>
      <point x="226.908203125" y="590.333984375"/>
      <point x="222.389648438" y="576.422851562"/>
      <point x="222.389648438" y="548.713867188" type="curve" smooth="yes"/>
      <point x="222.389648438" y="547.323242188"/>
      <point x="222.401367188" y="545.897460938"/>
      <point x="222.422851562" y="544.436523438" type="curve" smooth="yes"/>
      <point x="222.841796875" y="516.134765625"/>
      <point x="226.436523438" y="475.267578125"/>
    </contour>
  </outline>
</glyph>
<glyph name="greater_greater" format="2">
  <advance width="304"/>
  <outline>
    <contour>
      <point x="163.0" y="0.0" type="curve" smooth="yes"/>
      <point x="159.453657784" y="-4.46385258627"/>
      <point x="152.824820014" y="-9.1766728481"/>
      <point x="142.517096632" y="-9.1766728481" type="curve" smooth="yes"/>
      <point x="141.513573108" y="-9.1766728481"/>
      <point x="140.475180071" y="-9.13200341088"/>
      <point x="139.401367188" y="-9.0380859375" type="curve" smooth="yes"/>
      <point x="132.42578125" y="-8.427734375"/>
      <point x="123.955078125" y="-5.73828125"/>
      <point x="113.837890625" y="0.2861328125" type="curve" smooth="yes"/>
      <point x="101.683196946" y="7.52236902068"/>
      <point x="97.3102471585" y="15.844863468"/>
      <point x="97.3102471585" y="23.1526182609" type="curve" smooth="yes"/>
      <point x="97.3102471585" y="23.6901978543"/>
      <point x="97.3339113737" y="24.2222861846"/>
      <point x="97.3798828125" y="24.748046875" type="curve" smooth="yes"/>
      <point x="97.7373046875" y="28.8330078125"/>
      <point x="99.44140625" y="32.53515625"/>
      <point x="101.858398438" y="35.4638671875" type="curve" smooth="yes"/>
      <point x="129.442382812" y="68.88671875"/>
      <point x="193.173828125" y="126.872070312"/>
      <point x="227.0" y="147.0" type="curve"/>
      <point x="189.176757812" y="178.872070312"/>
      <point x="125.435546875" y="243.6953125"/>
      <point x="122.374023438" y="266.861328125" type="curve" smooth="yes"/>
      <point x="122.102613279" y="268.913717335"/>
      <point x="121.973718781" y="270.891156599"/>
      <point x="121.973718781" y="272.784565143" type="curve" smooth="yes"/>
      <point x="121.973718781" y="273.970489991"/>
      <point x="122.02428495" y="275.123449029"/>
      <point x="122.122070312" y="276.241210938" type="curve" smooth="yes"/>
      <point x="123.243129184" y="289.059179647"/>
      <point x="130.587405747" y="297.221556968"/>
      <point x="139.194060074" y="297.221556968" type="curve" smooth="yes"/>
      <point x="139.591685749" y="297.221556968"/>
      <point x="139.992005871" y="297.204135017"/>
      <point x="140.39453125" y="297.168945312" type="curve" smooth="yes"/>
      <point x="141.90625" y="297.036132812"/>
      <point x="143.451171875" y="296.653320312"/>
      <point x="145.0" y="296.0" type="curve" smooth="yes"/>
      <point x="159.521484375" y="289.879882812"/>
      <point x="177.035245446" y="252.078244073"/>
      <point x="265.52734375" y="185.790039062" type="curve" smooth="yes"/>
      <point x="274.2973898" y="179.220519052"/>
      <point x="277.570306002" y="168.214673857"/>
      <point x="277.570306002" y="156.818630679" type="curve" smooth="yes"/>
      <point x="277.570306002" y="144.955674492"/>
      <point x="274.023703087" y="132.669891315"/>
      <point x="269.439453125" y="124.525390625" type="curve" smooth="yes"/>
      <point x="261.709960938" y="110.79296875"/>
      <point x="219.674804688" y="71.3310546875"/>
    </contour>
    <contour>
      <point x="57.7158203125" y="10.5986328125" type="curve" smooth="yes"/>
      <point x="54.1694780963" y="6.13478022623"/>
      <point x="47.540640327" y="1.4219599644"/>
      <point x="37.2329169441" y="1.4219599644" type="curve" smooth="yes"/>
      <point x="36.2293934203" y="1.4219599644"/>
      <point x="35.1910003829" y="1.46662940162"/>
      <point x="34.1171875" y="1.560546875" type="curve" smooth="yes"/>
      <point x="27.1416015625" y="2.1708984375"/>
      <point x="18.6708984375" y="4.8603515625"/>
      <point x="8.5537109375" y="10.884765625" type="curve" smooth="yes"/>
      <point x="-3.60098274116" y="18.1210018332"/>
      <point x="-7.97393252899" y="26.4434962805"/>
      <point x="-7.97393252899" y="33.7512510734" type="curve" smooth="yes"/>
      <point x="-7.97393252899" y="34.2888306668"/>
      <point x="-7.95026831375" y="34.8209189971"/>
      <point x="-7.904296875" y="35.3466796875" type="curve" smooth="yes"/>
      <point x="-7.546875" y="39.431640625"/>
      <point x="-5.8427734375" y="43.1337890625"/>
      <point x="-3.42578125" y="46.0625" type="curve" smooth="yes"/>
      <point x="24.158203125" y="79.4853515625"/>
      <point x="78.8388671875" y="127.89453125"/>
      <point x="112.665039062" y="148.022460938" type="curve"/>
      <point x="74.841796875" y="179.89453125"/>
      <point x="28.435546875" y="224.6953125"/>
      <point x="25.3740234375" y="247.861328125" type="curve" smooth="yes"/>
      <point x="25.102613279" y="249.913717332"/>
      <point x="24.9737187807" y="251.891156595"/>
      <point x="24.9737187807" y="253.784565136" type="curve" smooth="yes"/>
      <point x="24.9737187807" y="254.970489987"/>
      <point x="25.0242849501" y="256.123449027"/>
      <point x="25.1220703125" y="257.241210938" type="curve" smooth="yes"/>
      <point x="26.2431291837" y="270.059179647"/>
      <point x="33.5874057474" y="278.221556968"/>
      <point x="42.1940600741" y="278.221556968" type="curve" smooth="yes"/>
      <point x="42.5916857494" y="278.221556968"/>
      <point x="42.9920058706" y="278.204135017"/>
      <point x="43.39453125" y="278.168945312" type="curve" smooth="yes"/>
      <point x="44.90625" y="278.036132812"/>
      <point x="46.451171875" y="277.653320312"/>
      <point x="48.0" y="277.0" type="curve" smooth="yes"/>
      <point x="62.521484375" y="270.879882812"/>
      <point x="62.7005961213" y="253.100471588"/>
      <point x="151.192382812" y="186.8125" type="curve" smooth="yes"/>
      <point x="159.962428863" y="180.242979989"/>
      <point x="163.235345065" y="169.237134793"/>
      <point x="163.235345065" y="157.841091614" type="curve" smooth="yes"/>
      <point x="163.235345065" y="145.978135428"/>
      <point x="159.68874215" y="133.692352251"/>
      <point x="155.104492188" y="125.547851562" type="curve" smooth="yes"/>
      <point x="147.375" y="111.815429688"/>
      <point x="114.390625" y="81.9296875"/>
    </contour>
  </outline>
</glyph>
<glyph name="uni05D0.alt.yud" format="2">
  <advance width="212"/>
  <outline>
    <contour>
      <point x="3.0" y="-2.0" type="curve" smooth="yes"/>
      <point x="-62.0" y="-2.0"/>
      <point x="-77.0" y="85.0"/>
      <point x="-77.0" y="85.0" type="curve"/>
      <point x="-33.0" y="120.0" type="line" smooth="yes"/>
      <point x="-33.0" y="120.0"/>
      <point x="-33.2263467632" y="116.423721141"/>
      <point x="-33.2263467632" y="110.792984214" type="curve" smooth="yes"/>
      <point x="-33.2263467632" y="89.9592575826"/>
      <point x="-30.1276595745" y="41.0"/>
      <point x="-1.0" y="41.0" type="curve" smooth="yes"/>
      <point x="94.0" y="41.0"/>
      <point x="184.201053306" y="603.828797645"/>
      <point x="327.0" y="629.0" type="curve" smooth="yes"/>
      <point x="327.823229815" y="629.145110904"/>
      <point x="328.606271227" y="629.214483587"/>
      <point x="329.349523252" y="629.214483587" type="curve" smooth="yes"/>
      <point x="336.651020371" y="629.214483587"/>
      <point x="340.112626657" y="622.519644756"/>
      <point x="340.112626657" y="615.164762354" type="curve" smooth="yes"/>
      <point x="340.112626657" y="607.623837284"/>
      <point x="336.47368196" y="599.38905455"/>
      <point x="329.603515625" y="596.96484375" type="curve" smooth="yes"/>
      <point x="255.207171506" y="570.713307456"/>
      <point x="184.0" y="-2.0"/>
    </contour>
  </outline>
</glyph>
<glyph name="uni05D2_uni05D5" format="2">
  <advance width="526"/>
  <outline>
    <contour>
      <point x="151.0" y="48.0" type="curve" smooth="yes"/>
      <point x="199.0" y="48.0"/>
      <point x="258.0" y="10.0"/>
      <point x="298.0" y="10.0" type="curve" smooth="yes"/>
      <point x="373.0" y="10.0"/>
      <point x="405.0" y="100.0"/>
      <point x="405.0" y="178.0" type="curve" smooth="yes"/>
      <point x="405.0" y="210.0"/>
      <point x="440.0" y="219.0"/>
      <point x="476.0" y="219.0" type="curve" smooth="yes"/>
      <point x="486.0" y="219.0"/>
      <point x="496.0" y="213.0"/>
      <point x="496.0" y="200.0" type="curve" smooth="yes"/>
      <point x="496.0" y="92.0"/>
      <point x="396.0" y="-37.0"/>
      <point x="292.0" y="-37.0" type="curve" smooth="yes"/>
      <point x="256.0" y="-37.0"/>
      <point x="204.0" y="-5.0"/>
      <point x="168.0" y="-5.0" type="curve" smooth="yes"/>
      <point x="139.0" y="-5.0"/>
      <point x="83.0" y="-34.0"/>
      <point x="46.0" y="-34.0" type="curve" smooth="yes"/>
      <point x="-44.0" y="-34.0"/>
      <point x="-113.0" y="13.0"/>
      <point x="-113.0" y="34.0" type="curve" smooth="yes"/>
      <point x="-113.0" y="40.0"/>
      <point x="-111.0" y="43.0"/>
      <point x="-103.0" y="43.0" type="curve" smooth="yes"/>
      <point x="-68.0" y="43.0"/>
      <point x="-45.0" y="16.0"/>
      <point x="5.0" y="16.0" type="curve" smooth="yes"/>
      <point x="66.0" y="16.0"/>
      <point x="106.0" y="48.0"/>
    </contour>
    <contour>
      <point x="159.0" y="304.0" type="curve" smooth="yes"/>
      <point x="159.0" y="280.0"/>
      <point x="121.0" y="200.0"/>
      <point x="83.0" y="141.0" type="curve" smooth="yes"/>
      <point x="59.0" y="103.0"/>
      <point x="36.0" y="74.0"/>
      <point x="22.0" y="74.0" type="curve" smooth="yes"/>
      <point x="3.0" y="74.0"/>
      <point x="3.0" y="79.0"/>
      <point x="3.0" y="90.0" type="curve" smooth="yes"/>
      <point x="3.0" y="103.0"/>
      <point x="54.0" y="214.0"/>
      <point x="78.0" y="302.0" type="curve" smooth="yes"/>
      <point x="84.0" y="323.0"/>
      <point x="103.0" y="324.0"/>
      <point x="123.0" y="324.0" type="curve" smooth="yes"/>
      <point x="124.0" y="324.0"/>
      <point x="125.0" y="324.0"/>
      <point x="126.0" y="324.0" type="curve" smooth="yes"/>
      <point x="127.739130435" y="324.0"/>
      <point x="129.425330813" y="324.007561437"/>
      <point x="131.054656037" y="324.007561437" type="curve" smooth="yes"/>
      <point x="148.162570888" y="324.007561437"/>
      <point x="159.0" y="323.173913043"/>
    </contour>
  </outline>
</glyph>
<glyph name="uni05D3_uni05D9" format="2">
  <advance width="354"/>
  <outline>
    <contour>
      <point x="-20.0" y="26.0" type="curve" smooth="yes"/>
      <point x="-20.0" y="39.0"/>
      <point x="-9.7939453125" y="43.22265625"/>
      <point x="15.0" y="130.0" type="curve" smooth="yes"/>
      <point x="21.0" y="151.0"/>
      <point x="40.0" y="153.0"/>
      <point x="60.0" y="153.0" type="curve" smooth="yes"/>
      <point x="61.0" y="153.0"/>
      <point x="62.0" y="153.0"/>
      <point x="63.0" y="153.0" type="curve" smooth="yes"/>
      <point x="83.0" y="153.0"/>
      <point x="96.0" y="153.0"/>
      <point x="96.0" y="132.0" type="curve" smooth="yes"/>
      <point x="96.0" y="125.540122706"/>
      <point x="94.3568806728" y="117.984832527"/>
      <point x="91.4623620455" y="109.856422839" type="curve" smooth="yes"/>
      <point x="91.3005642543" y="108.377235685"/>
      <point x="91.2832028075" y="106.931072485"/>
      <point x="91.2226932853" y="105.519670573" type="curve" smooth="yes"/>
      <point x="91.1792023276" y="104.505231548"/>
      <point x="91.1575071537" y="103.480674727"/>
      <point x="91.1575071537" y="102.448026616" type="curve" smooth="yes"/>
      <point x="91.1575071537" y="74.6524330115"/>
      <point x="106.875979419" y="40.9945799379"/>
      <point x="136.350871396" y="40.9945799379" type="curve" smooth="yes"/>
      <point x="136.566511544" y="40.9945799379"/>
      <point x="136.782888002" y="40.9963814667"/>
      <point x="137.0" y="41.0" type="curve" smooth="yes"/>
      <point x="197.0" y="42.0"/>
      <point x="237.0" y="113.20703125"/>
      <point x="243.0" y="168.0" type="curve" smooth="yes"/>
      <point x="243.508022879" y="172.861826433"/>
      <point x="243.754153819" y="177.485271244"/>
      <point x="243.754153819" y="181.88377216" type="curve" smooth="yes"/>
      <point x="243.754153819" y="256.194288293"/>
      <point x="173.50236421" y="266.300315371"/>
      <point x="109.0" y="277.0" type="curve" smooth="yes"/>
      <point x="3.98904362001" y="294.419601479"/>
      <point x="-28.7441777737" y="328.347930448"/>
      <point x="-28.7441777737" y="345.554716539" type="curve" smooth="yes"/>
      <point x="-28.7441777737" y="352.00508611"/>
      <point x="-24.1441714941" y="356.10557385"/>
      <point x="-17.0274058768" y="356.10557385" type="curve" smooth="yes"/>
      <point x="-16.3723826166" y="356.10557385"/>
      <point x="-15.6960392285" y="356.070837543"/>
      <point x="-15.0" y="356.0" type="curve" smooth="yes"/>
      <point x="3.0" y="354.16796875"/>
      <point x="59.0" y="319.133789062"/>
      <point x="131.0" y="314.0" type="curve" smooth="yes"/>
      <point x="198.807617188" y="309.165039062"/>
      <point x="323.062493771" y="282.0006976"/>
      <point x="324.0" y="177.0" type="curve" smooth="yes"/>
      <point x="324.004242498" y="176.524840276"/>
      <point x="324.006362287" y="176.049527918"/>
      <point x="324.006362287" y="175.574079118" type="curve" smooth="yes"/>
      <point x="324.006362287" y="89.9972073678"/>
      <point x="255.331461319" y="-1.36210487334e-14"/>
      <point x="135.0" y="0.0" type="curve" smooth="yes"/>
      <point x="94.3024477861" y="0.0"/>
      <point x="69.0644819304" y="22.2142795859"/>
      <point x="53.9163719011" y="48.0624930717" type="curve"/>
      <point x="35.486383284" y="26.3765302649"/>
      <point x="14.7474848862" y="10.0"/>
      <point x="0.0" y="10.0" type="curve"/>
      <point x="-20.0" y="10.0"/>
      <point x="-20.0" y="15.0"/>
    </contour>
  </outline>
</glyph>
<glyph name="uni05D3_uni05F3_uni05D9_uni05D9" format="2">
  <advance width="430"/>
  <outline>
    <contour>
      <point x="325.0" y="564.0" type="curve" smooth="yes"/>
      <point x="328.449933393" y="569.218574054"/>
      <point x="335.571056305" y="575.059623402"/>
      <point x="347.720240248" y="575.059623402" type="curve" smooth="yes"/>
      <point x="354.72303537" y="575.059623402"/>
      <point x="363.396340825" y="573.119007877"/>
      <point x="374.0" y="568.0" type="curve" smooth="yes"/>
      <point x="387.675385082" y="561.398089961"/>
      <point x="392.527611375" y="552.766911616"/>
      <point x="392.527611375" y="545.06526283" type="curve" smooth="yes"/>
      <point x="392.527611375" y="540.964414406"/>
      <point x="391.151919851" y="537.127103965"/>
      <point x="389.0" y="534.0" type="curve" smooth="yes"/>
      <point x="361.475585938" y="494.000976562"/>
      <point x="300.262695312" y="427.950195312"/>
      <point x="269.0" y="421.0" type="curve" smooth="yes"/>
      <point x="265.712998801" y="420.269351482"/>
      <point x="262.59034192" y="419.930913827"/>
      <point x="259.677571247" y="419.930913827" type="curve" smooth="yes"/>
      <point x="246.215865985" y="419.930913827"/>
      <point x="237.237188895" y="427.159714441"/>
      <point x="237.237188895" y="436.309115457" type="curve" smooth="yes"/>
      <point x="237.237188895" y="437.82791347"/>
      <point x="237.484604488" y="439.39963537"/>
      <point x="238.0" y="441.0" type="curve" smooth="yes"/>
      <point x="242.831054688" y="456.0"/>
      <point x="274.7578125" y="488.000976562"/>
    </contour>
    <contour>
      <point x="0.0" y="84.0" type="curve" smooth="yes"/>
      <point x="0.0" y="97.0"/>
      <point x="0.0" y="86.0"/>
      <point x="24.0" y="173.0" type="curve" smooth="yes"/>
      <point x="30.0" y="194.0"/>
      <point x="49.0" y="196.0"/>
      <point x="69.0" y="196.0" type="curve" smooth="yes"/>
      <point x="70.0" y="196.0"/>
      <point x="71.0" y="196.0"/>
      <point x="72.0" y="196.0" type="curve" smooth="yes"/>
      <point x="92.0" y="196.0"/>
      <point x="105.0" y="196.0"/>
      <point x="105.0" y="175.0" type="curve" smooth="yes"/>
      <point x="105.0" y="135.0"/>
      <point x="53.0" y="68.0"/>
      <point x="20.0" y="68.0" type="curve" smooth="yes"/>
      <point x="0.0" y="68.0"/>
      <point x="0.0" y="73.0"/>
    </contour>
    <contour>
      <point x="135.0" y="84.0" type="curve" smooth="yes"/>
      <point x="135.0" y="97.0"/>
      <point x="135.0" y="86.0"/>
      <point x="159.0" y="173.0" type="curve" smooth="yes"/>
      <point x="165.0" y="194.0"/>
      <point x="184.0" y="196.0"/>
      <point x="204.0" y="196.0" type="curve" smooth="yes"/>
      <point x="205.0" y="196.0"/>
      <point x="206.0" y="196.0"/>
      <point x="207.0" y="196.0" type="curve" smooth="yes"/>
      <point x="227.0" y="196.0"/>
      <point x="240.0" y="196.0"/>
      <point x="240.0" y="175.0" type="curve" smooth="yes"/>
      <point x="240.0" y="135.0"/>
      <point x="188.0" y="68.0"/>
      <point x="155.0" y="68.0" type="curve" smooth="yes"/>
      <point x="135.0" y="68.0"/>
      <point x="135.0" y="73.0"/>
    </contour>
    <contour>
      <point x="182.0" y="318.0" type="curve" smooth="yes"/>
      <point x="269.0" y="308.23046875"/>
      <point x="400.0" y="288.017578125"/>
      <point x="400.0" y="177.0" type="curve" smooth="yes"/>
      <point x="400.0" y="103.97265625"/>
      <point x="347.0" y="0.0"/>
      <point x="250.0" y="0.0" type="curve" smooth="yes"/>
      <point x="231.86022786" y="0.0"/>
      <point x="225.248948202" y="7.50721030367"/>
      <point x="225.248948202" y="15.870029471" type="curve" smooth="yes"/>
      <point x="225.248948202" y="25.4870363464"/>
      <point x="233.991937956" y="36.2355306062"/>
      <point x="244.0" y="38.0" type="curve" smooth="yes"/>
      <point x="296.0" y="47.1689453125"/>
      <point x="312.208007812" y="103.0"/>
      <point x="319.0" y="168.0" type="curve" smooth="yes"/>
      <point x="319.486625964" y="172.657055952"/>
      <point x="319.722225232" y="177.101085007"/>
      <point x="319.722225232" y="181.343033081" type="curve" smooth="yes"/>
      <point x="319.722225232" y="266.365829848"/>
      <point x="225.073664357" y="270.205547815"/>
      <point x="160.0" y="281.0" type="curve" smooth="yes"/>
      <point x="46.4400694643" y="299.837736577"/>
      <point x="5.63032126764" y="342.691531023"/>
      <point x="5.63032126764" y="360.308741564" type="curve" smooth="yes"/>
      <point x="5.63032126764" y="365.156281216"/>
      <point x="8.72013547991" y="368.093092205"/>
      <point x="14.2343475174" y="368.093092205" type="curve" smooth="yes"/>
      <point x="14.7978197736" y="368.093092205"/>
      <point x="15.3866072691" y="368.062426416"/>
      <point x="16.0" y="368.0" type="curve" smooth="yes"/>
      <point x="34.0" y="366.16796875"/>
      <point x="110.267578125" y="326.0546875"/>
    </contour>
  </outline>
</glyph>
<glyph name="uni05D4.alt" format="2">
  <advance width="180"/>
  <outline>
    <contour>
      <point x="63.0" y="216.0" type="curve" smooth="yes"/>
      <point x="62.8795548961" y="217.376696014"/>
      <point x="62.8204236337" y="218.71246058"/>
      <point x="62.8204236337" y="220.008514003" type="curve" smooth="yes"/>
      <point x="62.8204236337" y="248.723088764"/>
      <point x="91.8456839131" y="257.944991982"/>
      <point x="126.16015625" y="260.9453125" type="curve" smooth="yes"/>
      <point x="126.887642647" y="261.008925662"/>
      <point x="127.623232565" y="261.041129865"/>
      <point x="128.362304007" y="261.041129865" type="curve" smooth="yes"/>
      <point x="137.743787704" y="261.041129865"/>
      <point x="147.686241262" y="255.852140641"/>
      <point x="148.736328125" y="243.84765625" type="curve" smooth="yes"/>
      <point x="149.44499867" y="235.747383027"/>
      <point x="149.781545676" y="228.030200293"/>
      <point x="149.781545676" y="220.670539485" type="curve" smooth="yes"/>
      <point x="149.781545676" y="81.4286480398"/>
      <point x="29.3140279589" y="70.1622789104"/>
      <point x="29.3140279589" y="13.713386567" type="curve" smooth="yes"/>
      <point x="29.3140279589" y="6.90161144527"/>
      <point x="31.0682304234" y="-0.568094503624"/>
      <point x="35.0" y="-9.0" type="curve" smooth="yes"/>
      <point x="36.7465738526" y="-12.7455936739"/>
      <point x="37.8865334162" y="-17.05120263"/>
      <point x="37.8865334162" y="-21.2375057796" type="curve" smooth="yes"/>
      <point x="37.8865334162" y="-28.1928835373"/>
      <point x="34.7397305145" y="-34.8189234218"/>
      <point x="26.0" y="-38.0" type="curve" smooth="yes"/>
      <point x="19.499851174" y="-40.3658629918"/>
      <point x="11.2647617636" y="-42.0920704319"/>
      <point x="2.83764457433" y="-42.0920704319" type="curve" smooth="yes"/>
      <point x="-10.7748862589" y="-42.0920704319"/>
      <point x="-24.8884701821" y="-37.5879222456"/>
      <point x="-33.0" y="-24.0" type="curve" smooth="yes"/>
      <point x="-41.7361531458" y="-9.36574822062"/>
      <point x="-45.4259210367" y="2.86019211402"/>
      <point x="-45.4259210367" y="13.576898454" type="curve" smooth="yes"/>
      <point x="-45.4259210367" y="71.8721259811"/>
      <point x="63.7539029955" y="85.5092864357"/>
      <point x="63.7539029955" y="199.202903463" type="curve" smooth="yes"/>
      <point x="63.7539029955" y="204.57358055"/>
      <point x="63.5102743753" y="210.167527978"/>
    </contour>
  </outline>
</glyph>
<glyph name="uni05D4_quotesingle" format="2">
  <advance width="180"/>
  <outline>
    <contour>
      <point x="112.0" y="564.0" type="curve" smooth="yes"/>
      <point x="115.449933393" y="569.218574054"/>
      <point x="122.571056305" y="575.059623402"/>
      <point x="134.720240248" y="575.059623402" type="curve" smooth="yes"/>
      <point x="141.72303537" y="575.059623402"/>
      <point x="150.396340825" y="573.119007877"/>
      <point x="161.0" y="568.0" type="curve" smooth="yes"/>
      <point x="174.675385082" y="561.398089961"/>
      <point x="179.527611375" y="552.766911616"/>
      <point x="179.527611375" y="545.06526283" type="curve" smooth="yes"/>
      <point x="179.527611375" y="540.964414406"/>
      <point x="178.151919851" y="537.127103965"/>
      <point x="176.0" y="534.0" type="curve" smooth="yes"/>
      <point x="148.475585938" y="494.000976562"/>
      <point x="87.2626953125" y="427.950195312"/>
      <point x="56.0" y="421.0" type="curve" smooth="yes"/>
      <point x="52.7129988007" y="420.269351482"/>
      <point x="49.5903419201" y="419.930913827"/>
      <point x="46.6775712466" y="419.930913827" type="curve" smooth="yes"/>
      <point x="33.2158659846" y="419.930913827"/>
      <point x="24.237188895" y="427.159714441"/>
      <point x="24.237188895" y="436.309115457" type="curve" smooth="yes"/>
      <point x="24.237188895" y="437.82791347"/>
      <point x="24.4846044883" y="439.39963537"/>
      <point x="25.0" y="441.0" type="curve" smooth="yes"/>
      <point x="29.8310546875" y="456.0"/>
      <point x="61.7578125" y="488.000976562"/>
    </contour>
    <contour>
      <point x="63.0" y="216.0" type="curve" smooth="yes"/>
      <point x="62.8795548961" y="217.376696014"/>
      <point x="62.8204236337" y="218.71246058"/>
      <point x="62.8204236337" y="220.008514003" type="curve" smooth="yes"/>
      <point x="62.8204236337" y="248.723088764"/>
      <point x="91.8456839131" y="257.944991982"/>
      <point x="126.16015625" y="260.9453125" type="curve" smooth="yes"/>
      <point x="126.887642647" y="261.008925662"/>
      <point x="127.623232565" y="261.041129865"/>
      <point x="128.362304007" y="261.041129865" type="curve" smooth="yes"/>
      <point x="137.743787704" y="261.041129865"/>
      <point x="147.686241262" y="255.852140641"/>
      <point x="148.736328125" y="243.84765625" type="curve" smooth="yes"/>
      <point x="149.44499867" y="235.747383027"/>
      <point x="149.781545676" y="228.030200293"/>
      <point x="149.781545676" y="220.670539485" type="curve" smooth="yes"/>
      <point x="149.781545676" y="81.4286480398"/>
      <point x="29.3140279589" y="70.1622789104"/>
      <point x="29.3140279589" y="13.713386567" type="curve" smooth="yes"/>
      <point x="29.3140279589" y="6.90161144527"/>
      <point x="31.0682304234" y="-0.568094503624"/>
      <point x="35.0" y="-9.0" type="curve" smooth="yes"/>
      <point x="36.7465738526" y="-12.7455936739"/>
      <point x="37.8865334162" y="-17.05120263"/>
      <point x="37.8865334162" y="-21.2375057796" type="curve" smooth="yes"/>
      <point x="37.8865334162" y="-28.1928835373"/>
      <point x="34.7397305145" y="-34.8189234218"/>
      <point x="26.0" y="-38.0" type="curve" smooth="yes"/>
      <point x="19.499851174" y="-40.3658629918"/>
      <point x="11.2647617636" y="-42.0920704319"/>
      <point x="2.83764457433" y="-42.0920704319" type="curve" smooth="yes"/>
      <point x="-10.7748862589" y="-42.0920704319"/>
      <point x="-24.8884701821" y="-37.5879222456"/>
      <point x="-33.0" y="-24.0" type="curve" smooth="yes"/>
      <point x="-41.7361531458" y="-9.36574822062"/>
      <point x="-45.4259210367" y="2.86019211402"/>
      <point x="-45.4259210367" y="13.576898454" type="curve" smooth="yes"/>
      <point x="-45.4259210367" y="71.8721259811"/>
      <point x="63.7539029955" y="85.5092864357"/>
      <point x="63.7539029955" y="199.202903463" type="curve" smooth="yes"/>
      <point x="63.7539029955" y="204.57358055"/>
      <point x="63.5102743753" y="210.167527978"/>
    </contour>
  </outline>
</glyph>
<glyph name="uni05D8.yud" format="2">
  <advance width="420"/>
  <outline>
    <contour>
      <point x="111.0" y="66.0" type="curve"/>
      <point x="88.0" y="27.7158203125"/>
      <point x="50.0" y="0.0"/>
      <point x="-1.0" y="0.0" type="curve" smooth="yes"/>
      <point x="-62.0" y="0.0"/>
      <point x="-77.0" y="85.0"/>
      <point x="-77.0" y="85.0" type="curve"/>
      <point x="-33.0" y="120.0" type="line" smooth="yes"/>
      <point x="-33.0" y="120.0"/>
      <point x="-33.132231405" y="117.388429752"/>
      <point x="-33.132231405" y="113.114951165" type="curve" smooth="yes"/>
      <point x="-33.132231405" y="93.8842975207"/>
      <point x="-30.4545454545" y="41.0"/>
      <point x="-1.0" y="41.0" type="curve" smooth="yes"/>
      <point x="53.0" y="41.0"/>
      <point x="96.857421875" y="204.0"/>
      <point x="102.0" y="222.0" type="curve" smooth="yes"/>
      <point x="108.0" y="243.0"/>
      <point x="127.0" y="244.0"/>
      <point x="147.0" y="244.0" type="curve" smooth="yes"/>
      <point x="148.0" y="244.0"/>
      <point x="148.0" y="244.0"/>
      <point x="149.0" y="244.0" type="curve" smooth="yes"/>
      <point x="169.0" y="244.0"/>
      <point x="183.0" y="244.0"/>
      <point x="183.0" y="223.0" type="curve" smooth="yes"/>
      <point x="183.0" y="214.0"/>
      <point x="169.0" y="177.0"/>
      <point x="154.0" y="140.0" type="curve" smooth="yes"/>
      <point x="151.493009982" y="133.815893016"/>
      <point x="150.332563542" y="127.051319535"/>
      <point x="150.332563542" y="120.151308505" type="curve" smooth="yes"/>
      <point x="150.332563542" y="90.8009380605"/>
      <point x="171.329343882" y="59.0"/>
      <point x="199.0" y="59.0" type="curve" smooth="yes"/>
      <point x="274.0" y="59.0"/>
      <point x="307.0" y="137.0"/>
      <point x="307.0" y="215.0" type="curve" smooth="yes"/>
      <point x="307.0" y="247.0"/>
      <point x="342.0" y="256.0"/>
      <point x="378.0" y="256.0" type="curve" smooth="yes"/>
      <point x="388.0" y="256.0"/>
      <point x="398.0" y="250.0"/>
      <point x="398.0" y="237.0" type="curve" smooth="yes"/>
      <point x="398.0" y="129.0"/>
      <point x="301.0" y="18.0"/>
      <point x="197.0" y="18.0" type="curve" smooth="yes"/>
      <point x="152.739257812" y="18.0"/>
      <point x="125.59765625" y="37.3515625"/>
    </contour>
  </outline>
</glyph>
<glyph name="uni05DF_quoteright" format="2">
  <advance width="219"/>
  <outline>
    <contour>
      <point x="182.0" y="564.0" type="curve" smooth="yes"/>
      <point x="185.449933393" y="569.218574054"/>
      <point x="192.571056305" y="575.059623402"/>
      <point x="204.720240248" y="575.059623402" type="curve" smooth="yes"/>
      <point x="211.72303537" y="575.059623402"/>
      <point x="220.396340825" y="573.119007877"/>
      <point x="231.0" y="568.0" type="curve" smooth="yes"/>
      <point x="244.675385082" y="561.398089961"/>
      <point x="249.527611375" y="552.766911616"/>
      <point x="249.527611375" y="545.06526283" type="curve" smooth="yes"/>
      <point x="249.527611375" y="540.964414406"/>
      <point x="248.151919851" y="537.127103965"/>
      <point x="246.0" y="534.0" type="curve" smooth="yes"/>
      <point x="218.475585938" y="494.000976562"/>
      <point x="157.262695312" y="427.950195312"/>
      <point x="126.0" y="421.0" type="curve" smooth="yes"/>
      <point x="122.712998801" y="420.269351482"/>
      <point x="119.59034192" y="419.930913827"/>
      <point x="116.677571247" y="419.930913827" type="curve" smooth="yes"/>
      <point x="103.215865985" y="419.930913827"/>
      <point x="94.237188895" y="427.159714441"/>
      <point x="94.237188895" y="436.309115457" type="curve" smooth="yes"/>
      <point x="94.237188895" y="437.82791347"/>
      <point x="94.4846044883" y="439.39963537"/>
      <point x="95.0" y="441.0" type="curve" smooth="yes"/>
      <point x="99.8310546875" y="456.0"/>
      <point x="131.7578125" y="488.000976562"/>
    </contour>
    <contour>
      <point x="-176.974609375" y="-346.5078125" type="curve" smooth="yes"/>
      <point x="-170.422851562" y="-271.627929688"/>
      <point x="126.0" y="237.0"/>
      <point x="180.0" y="237.0" type="curve" smooth="yes"/>
      <point x="199.0" y="237.0"/>
      <point x="199.0" y="231.0"/>
      <point x="199.0" y="220.0" type="curve" smooth="yes"/>
      <point x="199.0" y="200.764648438"/>
      <point x="-11.056640625" y="-130.145507812"/>
      <point x="-96.1953125" y="-352.571289062" type="curve" smooth="yes"/>
      <point x="-102.081614279" y="-367.949298474"/>
      <point x="-114.337903958" y="-371.358324868"/>
      <point x="-128.55133663" y="-371.358324868" type="curve" smooth="yes"/>
      <point x="-133.190665064" y="-371.358324868"/>
      <point x="-138.038507316" y="-370.995127537"/>
      <point x="-142.94140625" y="-370.56640625" type="curve" smooth="yes"/>
      <point x="-143.9375" y="-370.478515625"/>
      <point x="-143.9375" y="-370.478515625"/>
      <point x="-144.93359375" y="-370.391601562" type="curve" smooth="yes"/>
      <point x="-163.680298323" y="-368.751425714"/>
      <point x="-177.135783578" y="-367.574663845"/>
      <point x="-177.135783578" y="-350.01377236" type="curve" smooth="yes"/>
      <point x="-177.135783578" y="-348.911107149"/>
      <point x="-177.082732575" y="-347.743844156"/>
    </contour>
  </outline>
</glyph>
<glyph name="uni05E1_uni05F3" format="2">
  <advance width="534"/>
  <outline>
    <contour>
      <point x="109.0" y="37.0" type="curve" smooth="yes"/>
      <point x="195.99220501" y="59.5047845697"/>
      <point x="224.142578125" y="184.0"/>
      <point x="237.0" y="229.0" type="curve" smooth="yes"/>
      <point x="243.0" y="250.0"/>
      <point x="262.0" y="251.0"/>
      <point x="282.0" y="251.0" type="curve" smooth="yes"/>
      <point x="283.0" y="251.0"/>
      <point x="283.0" y="251.0"/>
      <point x="284.0" y="251.0" type="curve" smooth="yes"/>
      <point x="304.0" y="251.0"/>
      <point x="318.0" y="251.0"/>
      <point x="318.0" y="230.0" type="curve" smooth="yes"/>
      <point x="318.0" y="229.721679688"/>
      <point x="317.995117188" y="229.436523438"/>
      <point x="317.984375" y="229.142578125" type="curve"/>
      <point x="340.620117188" y="242.1484375"/>
      <point x="366.255859375" y="251.0"/>
      <point x="394.0" y="251.0" type="curve"/>
      <point x="474.576171875" y="251.0"/>
      <point x="503.549804688" y="206.034179688"/>
      <point x="503.549804688" y="158.490234375" type="curve" smooth="yes"/>
      <point x="503.549804688" y="154.669921875"/>
      <point x="503.362304688" y="150.83203125"/>
      <point x="503.0" y="147.0" type="curve" smooth="yes"/>
      <point x="494.013671875" y="52.0"/>
      <point x="398.0" y="0.0"/>
      <point x="319.0" y="0.0" type="curve" smooth="yes"/>
      <point x="274.739257812" y="0.0"/>
      <point x="250.763671875" y="26.2744140625"/>
      <point x="236.166015625" y="54.9228515625" type="curve"/>
      <point x="191.107607593" y="4.82275351381"/>
      <point x="135.36226803" y="-17.2323164715"/>
      <point x="84.6323867487" y="-17.2323164715" type="curve" smooth="yes"/>
      <point x="8.22457065693" y="-17.2323164715"/>
      <point x="-56.8054399776" y="32.8006579068"/>
      <point x="-56.8054399776" y="112.400011215" type="curve" smooth="yes"/>
      <point x="-56.8054399776" y="151.38943467"/>
      <point x="-41.2031490148" y="197.472555977"/>
      <point x="-3.693359375" y="248.244140625" type="curve" smooth="yes"/>
      <point x="14.0713626202" y="272.289647598"/>
      <point x="33.002660089" y="284.031099807"/>
      <point x="44.7415509318" y="284.031099807" type="curve" smooth="yes"/>
      <point x="51.8323076381" y="284.031099807"/>
      <point x="56.2988139403" y="279.747066339"/>
      <point x="56.2988139403" y="271.302992714" type="curve" smooth="yes"/>
      <point x="56.2988139403" y="262.587910135"/>
      <point x="51.5410056182" y="249.44147286"/>
      <point x="40.0" y="232.0" type="curve" smooth="yes"/>
      <point x="11.9958610913" y="189.678521206"/>
      <point x="-0.982562650808" y="148.77038367"/>
      <point x="-0.982562650808" y="115.125160358" type="curve" smooth="yes"/>
      <point x="-0.982562650808" y="66.0366040687"/>
      <point x="26.6445588948" y="32.4085858236"/>
      <point x="75.540367508" y="32.4085858236" type="curve" smooth="yes"/>
      <point x="85.7802481816" y="32.4085858236"/>
      <point x="96.9529259991" y="33.8834356474"/>
    </contour>
    <contour>
      <point x="280.0" y="122.0" type="curve" smooth="yes"/>
      <point x="277.783203125" y="114.965820312"/>
      <point x="276.549804688" y="107.455078125"/>
      <point x="276.549804688" y="99.8798828125" type="curve" smooth="yes"/>
      <point x="276.549804688" y="70.6455078125"/>
      <point x="293.203125" y="41.0"/>
      <point x="321.0" y="41.0" type="curve" smooth="yes"/>
      <point x="379.0" y="41.0"/>
      <point x="421.999023438" y="97.0"/>
      <point x="426.0" y="147.0" type="curve" smooth="yes"/>
      <point x="426.202148438" y="149.522460938"/>
      <point x="426.299804688" y="151.952148438"/>
      <point x="426.299804688" y="154.290039062" type="curve" smooth="yes"/>
      <point x="426.299804688" y="192.068359375"/>
      <point x="400.790039062" y="204.490234375"/>
      <point x="378.7734375" y="206.07421875" type="curve" smooth="yes"/>
      <point x="374.390654938" y="206.389464833"/>
      <point x="370.235200458" y="206.544336292"/>
      <point x="366.291586916" y="206.544336292" type="curve" smooth="yes"/>
      <point x="307.687023842" y="206.544336292"/>
      <point x="295.865028938" y="172.342804782"/>
    </contour>
    <contour>
      <point x="153.0" y="564.0" type="curve" smooth="yes"/>
      <point x="156.449933393" y="569.218574054"/>
      <point x="163.571056305" y="575.059623402"/>
      <point x="175.720240248" y="575.059623402" type="curve" smooth="yes"/>
      <point x="182.72303537" y="575.059623402"/>
      <point x="191.396340825" y="573.119007877"/>
      <point x="202.0" y="568.0" type="curve" smooth="yes"/>
      <point x="215.675385082" y="561.398089961"/>
      <point x="220.527611375" y="552.766911616"/>
      <point x="220.527611375" y="545.06526283" type="curve" smooth="yes"/>
      <point x="220.527611375" y="540.964414406"/>
      <point x="219.151919851" y="537.127103965"/>
      <point x="217.0" y="534.0" type="curve" smooth="yes"/>
      <point x="189.475585938" y="494.000976562"/>
      <point x="128.262695312" y="427.950195312"/>
      <point x="97.0" y="421.0" type="curve" smooth="yes"/>
      <point x="93.7129988007" y="420.269351482"/>
      <point x="90.5903419201" y="419.930913827"/>
      <point x="87.6775712466" y="419.930913827" type="curve" smooth="yes"/>
      <point x="74.2158659846" y="419.930913827"/>
      <point x="65.237188895" y="427.159714441"/>
      <point x="65.237188895" y="436.309115457" type="curve" smooth="yes"/>
      <point x="65.237188895" y="437.82791347"/>
      <point x="65.4846044883" y="439.39963537"/>
      <point x="66.0" y="441.0" type="curve" smooth="yes"/>
      <point x="70.8310546875" y="456.0"/>
      <point x="102.7578125" y="488.000976562"/>
    </contour>
  </outline>
</glyph>
<glyph name="uni05E6.alt" format="2">
  <advance width="194"/>
  <outline>
    <contour>
      <point x="52.0" y="179.0" type="curve" smooth="yes"/>
      <point x="45.0045289678" y="184.098474483"/>
      <point x="30.9612473594" y="197.137469945"/>
      <point x="30.9612473594" y="220.831212591" type="curve" smooth="yes"/>
      <point x="30.9612473594" y="221.544461908"/>
      <point x="30.9739731273" y="222.267366364"/>
      <point x="31.0" y="223.0" type="curve" smooth="yes"/>
      <point x="31.74609375" y="244.0"/>
      <point x="46.0" y="279.0"/>
      <point x="91.0" y="279.0" type="curve" smooth="yes"/>
      <point x="102.619810946" y="279.0"/>
      <point x="115.314507724" y="275.759519846"/>
      <point x="125.577093022" y="269.378969582" type="curve"/>
      <point x="136.2587805" y="276.633240714"/>
      <point x="152.959089955" y="286.024170977"/>
      <point x="176.60546875" y="347.5859375" type="curve" smooth="yes"/>
      <point x="183.621354921" y="365.851328159"/>
      <point x="194.49597587" y="370.592156423"/>
      <point x="203.421784355" y="370.592156423" type="curve" smooth="yes"/>
      <point x="206.005814057" y="370.592156423"/>
      <point x="208.42651227" y="370.194823916"/>
      <point x="210.54296875" y="369.61328125" type="curve" smooth="yes"/>
      <point x="218.370491396" y="367.46249836"/>
      <point x="223.955651518" y="353.10800444"/>
      <point x="223.955651518" y="332.425352724" type="curve" smooth="yes"/>
      <point x="223.955651518" y="293.943639099"/>
      <point x="204.621193714" y="233.555391514"/>
      <point x="144.421752335" y="189.104286261" type="curve"/>
      <point x="136.88815476" y="49.6528023422"/>
      <point x="31.2499947442" y="0.0"/>
      <point x="-77.0" y="0.0" type="curve"/>
      <point x="-88.157081535" y="0.0"/>
      <point x="-95.3867957549" y="6.26169203371"/>
      <point x="-95.3867957549" y="14.2671427832" type="curve" smooth="yes"/>
      <point x="-95.3867957549" y="25.634784321"/>
      <point x="-80.8090527014" y="40.518479984"/>
      <point x="-42.1982421875" y="45.982421875" type="curve" smooth="yes"/>
      <point x="14.3635377814" y="53.986664078"/>
      <point x="54.2375261372" y="87.4888867415"/>
      <point x="54.2375261372" y="170.576140574" type="curve" smooth="yes"/>
      <point x="54.2375261372" y="172.895095336"/>
      <point x="54.2064658534" y="175.252674906"/>
      <point x="54.1438412013" y="177.649402954" type="curve" smooth="yes"/>
      <point x="53.2381048283" y="178.165814616"/>
      <point x="52.5157574455" y="178.624122927"/>
    </contour>
  </outline>
</glyph>
<glyph name="uni05E8_uni05D1_uni05F3" format="2">
  <advance width="502"/>
  <outline>
    <contour>
      <point x="88.0" y="584.0" type="curve" smooth="yes"/>
      <point x="91.4499333936" y="589.218574054"/>
      <point x="98.5710563049" y="595.059623402"/>
      <point x="110.720240248" y="595.059623402" type="curve" smooth="yes"/>
      <point x="117.72303537" y="595.059623402"/>
      <point x="126.396340825" y="593.119007877"/>
      <point x="137.0" y="588.0" type="curve" smooth="yes"/>
      <point x="150.675385082" y="581.398089961"/>
      <point x="155.527611375" y="572.766911616"/>
      <point x="155.527611375" y="565.06526283" type="curve" smooth="yes"/>
      <point x="155.527611375" y="560.964414406"/>
      <point x="154.151919851" y="557.127103965"/>
      <point x="152.0" y="554.0" type="curve" smooth="yes"/>
      <point x="124.475585938" y="514.000976562"/>
      <point x="63.2626953125" y="447.950195312"/>
      <point x="32.0" y="441.0" type="curve" smooth="yes"/>
      <point x="28.7129988007" y="440.269351482"/>
      <point x="25.5903419201" y="439.930913827"/>
      <point x="22.6775712466" y="439.930913827" type="curve" smooth="yes"/>
      <point x="9.21586598456" y="439.930913827"/>
      <point x="0.237188894965" y="447.159714441"/>
      <point x="0.237188894965" y="456.309115457" type="curve" smooth="yes"/>
      <point x="0.237188894965" y="457.82791347"/>
      <point x="0.48460448829" y="459.39963537"/>
      <point x="1.0" y="461.0" type="curve" smooth="yes"/>
      <point x="5.8310546875" y="476.0"/>
      <point x="37.7578125" y="508.000976562"/>
    </contour>
    <contour>
      <point x="59.0" y="0.0" type="curve" smooth="yes"/>
      <point x="-29.0457757445" y="0.0"/>
      <point x="-69.9510006507" y="46.5801163005"/>
      <point x="-69.9510006507" y="67.9538667077" type="curve" smooth="yes"/>
      <point x="-69.9510006507" y="74.317700016"/>
      <point x="-66.3247743085" y="78.4470024495"/>
      <point x="-59.2369002173" y="78.4470024495" type="curve" smooth="yes"/>
      <point x="-56.8739633474" y="78.4470024495"/>
      <point x="-54.1262973016" y="77.9880698148"/>
      <point x="-51.0" y="77.0" type="curve" smooth="yes"/>
      <point x="-37.8808980807" y="72.853609738"/>
      <point x="-1.93076700612" y="45.6163570187"/>
      <point x="49.4446146915" y="45.6163570187" type="curve" smooth="yes"/>
      <point x="52.8942772834" y="45.6163570187"/>
      <point x="56.4134863859" y="45.7391592946"/>
      <point x="60.0" y="46.0" type="curve" smooth="yes"/>
      <point x="115.0" y="50.0"/>
      <point x="161.672851562" y="93.0"/>
      <point x="166.0" y="147.0" type="curve" smooth="yes"/>
      <point x="166.202148438" y="149.522460938"/>
      <point x="166.299804688" y="151.952148438"/>
      <point x="166.299804688" y="154.290039062" type="curve" smooth="yes"/>
      <point x="166.299804688" y="192.068359375"/>
      <point x="138.0" y="208.0"/>
      <point x="106.0" y="208.0" type="curve" smooth="yes"/>
      <point x="71.0" y="208.0"/>
      <point x="56.0" y="193.782226562"/>
      <point x="40.0" y="185.0" type="curve" smooth="yes"/>
      <point x="33.4838799109" y="181.423395711"/>
      <point x="27.9273297388" y="180.00094554"/>
      <point x="23.3532272621" y="180.00094554" type="curve" smooth="yes"/>
      <point x="15.993887592" y="180.00094554"/>
      <point x="11.1777177021" y="183.683108272"/>
      <point x="9.0" y="188.0" type="curve" smooth="yes"/>
      <point x="8.38366721561" y="189.22172828"/>
      <point x="8.08597959738" y="190.567162155"/>
      <point x="8.08597959738" y="192.013903477" type="curve" smooth="yes"/>
      <point x="8.08597959738" y="211.88117395"/>
      <point x="64.2237819984" y="250.852959178"/>
      <point x="122.2265625" y="250.92578125" type="curve" smooth="yes"/>
      <point x="122.450826946" y="250.925922038" type="line" smooth="yes"/>
      <point x="178.91839539" y="250.925922038"/>
      <point x="243.553703282" y="224.154179266"/>
      <point x="243.553703282" y="159.363344642" type="curve" smooth="yes"/>
      <point x="243.553703282" y="159.073071336"/>
      <point x="243.552405933" y="158.782034918"/>
      <point x="243.549804688" y="158.490234375" type="curve" smooth="yes"/>
      <point x="243.515625" y="154.669921875"/>
      <point x="243.362304688" y="150.83203125"/>
      <point x="243.0" y="147.0" type="curve" smooth="yes"/>
      <point x="234.017578125" y="52.0"/>
      <point x="149.0" y="0.0"/>
    </contour>
    <contour>
      <point x="342.0" y="604.0" type="curve" smooth="yes"/>
      <point x="344.2110776" y="604.057181379"/>
      <point x="346.400344389" y="604.085584582"/>
      <point x="348.567799508" y="604.085584582" type="curve" smooth="yes"/>
      <point x="456.154312538" y="604.085584582"/>
      <point x="510.0" y="534.104162474"/>
      <point x="510.0" y="440.0" type="curve" smooth="yes"/>
      <point x="510.0" y="202.0"/>
      <point x="353.0" y="0.0"/>
      <point x="254.0" y="0.0" type="curve" smooth="yes"/>
      <point x="246.0" y="0.0"/>
      <point x="241.0" y="4.267578125"/>
      <point x="241.0" y="13.0" type="curve" smooth="yes"/>
      <point x="241.0" y="23.0"/>
      <point x="253.0" y="28.1953125"/>
      <point x="257.0" y="32.0" type="curve" smooth="yes"/>
      <point x="283.0" y="56.7333984375"/>
      <point x="423.0" y="164.780273438"/>
      <point x="423.0" y="447.0" type="curve" smooth="yes"/>
      <point x="423.0" y="528.0"/>
      <point x="385.137695312" y="568.0"/>
      <point x="327.0" y="568.0" type="curve" smooth="yes"/>
      <point x="247.595703125" y="568.0"/>
      <point x="196.34765625" y="499.985351562"/>
      <point x="193.0" y="423.0" type="curve" smooth="yes"/>
      <point x="192.926960449" y="421.320090336"/>
      <point x="192.890671578" y="419.654594291"/>
      <point x="192.890671578" y="418.003974407" type="curve" smooth="yes"/>
      <point x="192.890671578" y="359.104200745"/>
      <point x="239.097543952" y="319.146344558"/>
      <point x="310.528647637" y="319.146344558" type="curve" smooth="yes"/>
      <point x="319.316973396" y="319.146344558"/>
      <point x="328.487116376" y="319.751183509"/>
      <point x="338.0" y="321.0" type="curve" smooth="yes"/>
      <point x="351.444654362" y="322.765012066"/>
      <point x="362.099822136" y="323.53187691"/>
      <point x="370.369188799" y="323.53187691" type="curve" smooth="yes"/>
      <point x="387.813601601" y="323.53187691"/>
      <point x="394.640998959" y="320.119263906"/>
      <point x="394.640998959" y="315.465213055" type="curve" smooth="yes"/>
      <point x="394.640998959" y="310.510579596"/>
      <point x="386.903225806" y="304.148973034"/>
      <point x="376.0" y="299.0" type="curve" smooth="yes"/>
      <point x="344.369014509" y="284.062181326"/>
      <point x="312.328008155" y="277.275929775"/>
      <point x="282.252911253" y="277.275929775" type="curve" smooth="yes"/>
      <point x="197.279846718" y="277.275929775"/>
      <point x="128.0" y="331.448375839"/>
      <point x="128.0" y="409.0" type="curve" smooth="yes"/>
      <point x="128.0" y="521.751953125"/>
      <point x="226.0" y="601.0"/>
    </contour>
  </outline>
</glyph>
